G75*
%MOIN*%
%OFA0B0*%
%FSLAX25Y25*%
%IPPOS*%
%LPD*%
%AMOC8*
5,1,8,0,0,1.08239X$1,22.5*
%
%ADD10C,0.00000*%
%ADD11R,0.04724X0.03543*%
%ADD12R,0.03937X0.04331*%
%ADD13R,0.03543X0.04724*%
%ADD14R,0.04331X0.03937*%
%ADD15R,0.10630X0.06299*%
%ADD16R,0.05906X0.05118*%
%ADD17R,0.06299X0.10630*%
%ADD18R,0.21654X0.03937*%
%ADD19R,0.11811X0.06299*%
%ADD20R,0.08661X0.09055*%
%ADD21R,0.08661X0.09843*%
%ADD22R,0.12402X0.03937*%
%ADD23R,0.13780X0.09252*%
%ADD24R,0.09252X0.13780*%
%ADD25R,0.05945X0.06024*%
%ADD26C,0.00404*%
%ADD27R,0.06024X0.05945*%
%ADD28R,0.06890X0.02835*%
%ADD29R,0.03937X0.03150*%
%ADD30R,0.13386X0.06299*%
D10*
X0024681Y0033721D02*
X0119169Y0033721D01*
X0119169Y0073091D01*
X0253028Y0073091D01*
X0253028Y0033721D01*
X0319957Y0033721D01*
X0319957Y0080966D01*
X0359327Y0080966D01*
X0359327Y0033721D01*
X0398697Y0033721D01*
X0398697Y0328997D01*
X0359327Y0328997D01*
X0359327Y0281753D01*
X0319957Y0281753D01*
X0319957Y0328997D01*
X0024681Y0328997D01*
X0024681Y0033721D01*
X0040429Y0053406D02*
X0040431Y0053531D01*
X0040437Y0053656D01*
X0040447Y0053780D01*
X0040461Y0053904D01*
X0040478Y0054028D01*
X0040500Y0054151D01*
X0040526Y0054273D01*
X0040555Y0054395D01*
X0040588Y0054515D01*
X0040626Y0054634D01*
X0040666Y0054753D01*
X0040711Y0054869D01*
X0040759Y0054984D01*
X0040811Y0055098D01*
X0040867Y0055210D01*
X0040926Y0055320D01*
X0040988Y0055428D01*
X0041054Y0055535D01*
X0041123Y0055639D01*
X0041196Y0055740D01*
X0041271Y0055840D01*
X0041350Y0055937D01*
X0041432Y0056031D01*
X0041517Y0056123D01*
X0041604Y0056212D01*
X0041695Y0056298D01*
X0041788Y0056381D01*
X0041884Y0056462D01*
X0041982Y0056539D01*
X0042082Y0056613D01*
X0042185Y0056684D01*
X0042290Y0056751D01*
X0042398Y0056816D01*
X0042507Y0056876D01*
X0042618Y0056934D01*
X0042731Y0056987D01*
X0042845Y0057037D01*
X0042961Y0057084D01*
X0043078Y0057126D01*
X0043197Y0057165D01*
X0043317Y0057201D01*
X0043438Y0057232D01*
X0043560Y0057260D01*
X0043682Y0057283D01*
X0043806Y0057303D01*
X0043930Y0057319D01*
X0044054Y0057331D01*
X0044179Y0057339D01*
X0044304Y0057343D01*
X0044428Y0057343D01*
X0044553Y0057339D01*
X0044678Y0057331D01*
X0044802Y0057319D01*
X0044926Y0057303D01*
X0045050Y0057283D01*
X0045172Y0057260D01*
X0045294Y0057232D01*
X0045415Y0057201D01*
X0045535Y0057165D01*
X0045654Y0057126D01*
X0045771Y0057084D01*
X0045887Y0057037D01*
X0046001Y0056987D01*
X0046114Y0056934D01*
X0046225Y0056876D01*
X0046335Y0056816D01*
X0046442Y0056751D01*
X0046547Y0056684D01*
X0046650Y0056613D01*
X0046750Y0056539D01*
X0046848Y0056462D01*
X0046944Y0056381D01*
X0047037Y0056298D01*
X0047128Y0056212D01*
X0047215Y0056123D01*
X0047300Y0056031D01*
X0047382Y0055937D01*
X0047461Y0055840D01*
X0047536Y0055740D01*
X0047609Y0055639D01*
X0047678Y0055535D01*
X0047744Y0055428D01*
X0047806Y0055320D01*
X0047865Y0055210D01*
X0047921Y0055098D01*
X0047973Y0054984D01*
X0048021Y0054869D01*
X0048066Y0054753D01*
X0048106Y0054634D01*
X0048144Y0054515D01*
X0048177Y0054395D01*
X0048206Y0054273D01*
X0048232Y0054151D01*
X0048254Y0054028D01*
X0048271Y0053904D01*
X0048285Y0053780D01*
X0048295Y0053656D01*
X0048301Y0053531D01*
X0048303Y0053406D01*
X0048301Y0053281D01*
X0048295Y0053156D01*
X0048285Y0053032D01*
X0048271Y0052908D01*
X0048254Y0052784D01*
X0048232Y0052661D01*
X0048206Y0052539D01*
X0048177Y0052417D01*
X0048144Y0052297D01*
X0048106Y0052178D01*
X0048066Y0052059D01*
X0048021Y0051943D01*
X0047973Y0051828D01*
X0047921Y0051714D01*
X0047865Y0051602D01*
X0047806Y0051492D01*
X0047744Y0051384D01*
X0047678Y0051277D01*
X0047609Y0051173D01*
X0047536Y0051072D01*
X0047461Y0050972D01*
X0047382Y0050875D01*
X0047300Y0050781D01*
X0047215Y0050689D01*
X0047128Y0050600D01*
X0047037Y0050514D01*
X0046944Y0050431D01*
X0046848Y0050350D01*
X0046750Y0050273D01*
X0046650Y0050199D01*
X0046547Y0050128D01*
X0046442Y0050061D01*
X0046334Y0049996D01*
X0046225Y0049936D01*
X0046114Y0049878D01*
X0046001Y0049825D01*
X0045887Y0049775D01*
X0045771Y0049728D01*
X0045654Y0049686D01*
X0045535Y0049647D01*
X0045415Y0049611D01*
X0045294Y0049580D01*
X0045172Y0049552D01*
X0045050Y0049529D01*
X0044926Y0049509D01*
X0044802Y0049493D01*
X0044678Y0049481D01*
X0044553Y0049473D01*
X0044428Y0049469D01*
X0044304Y0049469D01*
X0044179Y0049473D01*
X0044054Y0049481D01*
X0043930Y0049493D01*
X0043806Y0049509D01*
X0043682Y0049529D01*
X0043560Y0049552D01*
X0043438Y0049580D01*
X0043317Y0049611D01*
X0043197Y0049647D01*
X0043078Y0049686D01*
X0042961Y0049728D01*
X0042845Y0049775D01*
X0042731Y0049825D01*
X0042618Y0049878D01*
X0042507Y0049936D01*
X0042397Y0049996D01*
X0042290Y0050061D01*
X0042185Y0050128D01*
X0042082Y0050199D01*
X0041982Y0050273D01*
X0041884Y0050350D01*
X0041788Y0050431D01*
X0041695Y0050514D01*
X0041604Y0050600D01*
X0041517Y0050689D01*
X0041432Y0050781D01*
X0041350Y0050875D01*
X0041271Y0050972D01*
X0041196Y0051072D01*
X0041123Y0051173D01*
X0041054Y0051277D01*
X0040988Y0051384D01*
X0040926Y0051492D01*
X0040867Y0051602D01*
X0040811Y0051714D01*
X0040759Y0051828D01*
X0040711Y0051943D01*
X0040666Y0052059D01*
X0040626Y0052178D01*
X0040588Y0052297D01*
X0040555Y0052417D01*
X0040526Y0052539D01*
X0040500Y0052661D01*
X0040478Y0052784D01*
X0040461Y0052908D01*
X0040447Y0053032D01*
X0040437Y0053156D01*
X0040431Y0053281D01*
X0040429Y0053406D01*
X0076059Y0055375D02*
X0076061Y0055459D01*
X0076067Y0055542D01*
X0076077Y0055625D01*
X0076091Y0055708D01*
X0076108Y0055790D01*
X0076130Y0055871D01*
X0076155Y0055950D01*
X0076184Y0056029D01*
X0076217Y0056106D01*
X0076253Y0056181D01*
X0076293Y0056255D01*
X0076336Y0056327D01*
X0076383Y0056396D01*
X0076433Y0056463D01*
X0076486Y0056528D01*
X0076542Y0056590D01*
X0076600Y0056650D01*
X0076662Y0056707D01*
X0076726Y0056760D01*
X0076793Y0056811D01*
X0076862Y0056858D01*
X0076933Y0056903D01*
X0077006Y0056943D01*
X0077081Y0056980D01*
X0077158Y0057014D01*
X0077236Y0057044D01*
X0077315Y0057070D01*
X0077396Y0057093D01*
X0077478Y0057111D01*
X0077560Y0057126D01*
X0077643Y0057137D01*
X0077726Y0057144D01*
X0077810Y0057147D01*
X0077894Y0057146D01*
X0077977Y0057141D01*
X0078061Y0057132D01*
X0078143Y0057119D01*
X0078225Y0057103D01*
X0078306Y0057082D01*
X0078387Y0057058D01*
X0078465Y0057030D01*
X0078543Y0056998D01*
X0078619Y0056962D01*
X0078693Y0056923D01*
X0078765Y0056881D01*
X0078835Y0056835D01*
X0078903Y0056786D01*
X0078968Y0056734D01*
X0079031Y0056679D01*
X0079091Y0056621D01*
X0079149Y0056560D01*
X0079203Y0056496D01*
X0079255Y0056430D01*
X0079303Y0056362D01*
X0079348Y0056291D01*
X0079389Y0056218D01*
X0079428Y0056144D01*
X0079462Y0056068D01*
X0079493Y0055990D01*
X0079520Y0055911D01*
X0079544Y0055830D01*
X0079563Y0055749D01*
X0079579Y0055667D01*
X0079591Y0055584D01*
X0079599Y0055500D01*
X0079603Y0055417D01*
X0079603Y0055333D01*
X0079599Y0055250D01*
X0079591Y0055166D01*
X0079579Y0055083D01*
X0079563Y0055001D01*
X0079544Y0054920D01*
X0079520Y0054839D01*
X0079493Y0054760D01*
X0079462Y0054682D01*
X0079428Y0054606D01*
X0079389Y0054532D01*
X0079348Y0054459D01*
X0079303Y0054388D01*
X0079255Y0054320D01*
X0079203Y0054254D01*
X0079149Y0054190D01*
X0079091Y0054129D01*
X0079031Y0054071D01*
X0078968Y0054016D01*
X0078903Y0053964D01*
X0078835Y0053915D01*
X0078765Y0053869D01*
X0078693Y0053827D01*
X0078619Y0053788D01*
X0078543Y0053752D01*
X0078465Y0053720D01*
X0078387Y0053692D01*
X0078306Y0053668D01*
X0078225Y0053647D01*
X0078143Y0053631D01*
X0078061Y0053618D01*
X0077977Y0053609D01*
X0077894Y0053604D01*
X0077810Y0053603D01*
X0077726Y0053606D01*
X0077643Y0053613D01*
X0077560Y0053624D01*
X0077478Y0053639D01*
X0077396Y0053657D01*
X0077315Y0053680D01*
X0077236Y0053706D01*
X0077158Y0053736D01*
X0077081Y0053770D01*
X0077006Y0053807D01*
X0076933Y0053847D01*
X0076862Y0053892D01*
X0076793Y0053939D01*
X0076726Y0053990D01*
X0076662Y0054043D01*
X0076600Y0054100D01*
X0076542Y0054160D01*
X0076486Y0054222D01*
X0076433Y0054287D01*
X0076383Y0054354D01*
X0076336Y0054423D01*
X0076293Y0054495D01*
X0076253Y0054569D01*
X0076217Y0054644D01*
X0076184Y0054721D01*
X0076155Y0054800D01*
X0076130Y0054879D01*
X0076108Y0054960D01*
X0076091Y0055042D01*
X0076077Y0055125D01*
X0076067Y0055208D01*
X0076061Y0055291D01*
X0076059Y0055375D01*
X0103618Y0055375D02*
X0103620Y0055459D01*
X0103626Y0055542D01*
X0103636Y0055625D01*
X0103650Y0055708D01*
X0103667Y0055790D01*
X0103689Y0055871D01*
X0103714Y0055950D01*
X0103743Y0056029D01*
X0103776Y0056106D01*
X0103812Y0056181D01*
X0103852Y0056255D01*
X0103895Y0056327D01*
X0103942Y0056396D01*
X0103992Y0056463D01*
X0104045Y0056528D01*
X0104101Y0056590D01*
X0104159Y0056650D01*
X0104221Y0056707D01*
X0104285Y0056760D01*
X0104352Y0056811D01*
X0104421Y0056858D01*
X0104492Y0056903D01*
X0104565Y0056943D01*
X0104640Y0056980D01*
X0104717Y0057014D01*
X0104795Y0057044D01*
X0104874Y0057070D01*
X0104955Y0057093D01*
X0105037Y0057111D01*
X0105119Y0057126D01*
X0105202Y0057137D01*
X0105285Y0057144D01*
X0105369Y0057147D01*
X0105453Y0057146D01*
X0105536Y0057141D01*
X0105620Y0057132D01*
X0105702Y0057119D01*
X0105784Y0057103D01*
X0105865Y0057082D01*
X0105946Y0057058D01*
X0106024Y0057030D01*
X0106102Y0056998D01*
X0106178Y0056962D01*
X0106252Y0056923D01*
X0106324Y0056881D01*
X0106394Y0056835D01*
X0106462Y0056786D01*
X0106527Y0056734D01*
X0106590Y0056679D01*
X0106650Y0056621D01*
X0106708Y0056560D01*
X0106762Y0056496D01*
X0106814Y0056430D01*
X0106862Y0056362D01*
X0106907Y0056291D01*
X0106948Y0056218D01*
X0106987Y0056144D01*
X0107021Y0056068D01*
X0107052Y0055990D01*
X0107079Y0055911D01*
X0107103Y0055830D01*
X0107122Y0055749D01*
X0107138Y0055667D01*
X0107150Y0055584D01*
X0107158Y0055500D01*
X0107162Y0055417D01*
X0107162Y0055333D01*
X0107158Y0055250D01*
X0107150Y0055166D01*
X0107138Y0055083D01*
X0107122Y0055001D01*
X0107103Y0054920D01*
X0107079Y0054839D01*
X0107052Y0054760D01*
X0107021Y0054682D01*
X0106987Y0054606D01*
X0106948Y0054532D01*
X0106907Y0054459D01*
X0106862Y0054388D01*
X0106814Y0054320D01*
X0106762Y0054254D01*
X0106708Y0054190D01*
X0106650Y0054129D01*
X0106590Y0054071D01*
X0106527Y0054016D01*
X0106462Y0053964D01*
X0106394Y0053915D01*
X0106324Y0053869D01*
X0106252Y0053827D01*
X0106178Y0053788D01*
X0106102Y0053752D01*
X0106024Y0053720D01*
X0105946Y0053692D01*
X0105865Y0053668D01*
X0105784Y0053647D01*
X0105702Y0053631D01*
X0105620Y0053618D01*
X0105536Y0053609D01*
X0105453Y0053604D01*
X0105369Y0053603D01*
X0105285Y0053606D01*
X0105202Y0053613D01*
X0105119Y0053624D01*
X0105037Y0053639D01*
X0104955Y0053657D01*
X0104874Y0053680D01*
X0104795Y0053706D01*
X0104717Y0053736D01*
X0104640Y0053770D01*
X0104565Y0053807D01*
X0104492Y0053847D01*
X0104421Y0053892D01*
X0104352Y0053939D01*
X0104285Y0053990D01*
X0104221Y0054043D01*
X0104159Y0054100D01*
X0104101Y0054160D01*
X0104045Y0054222D01*
X0103992Y0054287D01*
X0103942Y0054354D01*
X0103895Y0054423D01*
X0103852Y0054495D01*
X0103812Y0054569D01*
X0103776Y0054644D01*
X0103743Y0054721D01*
X0103714Y0054800D01*
X0103689Y0054879D01*
X0103667Y0054960D01*
X0103650Y0055042D01*
X0103636Y0055125D01*
X0103626Y0055208D01*
X0103620Y0055291D01*
X0103618Y0055375D01*
X0265035Y0055375D02*
X0265037Y0055459D01*
X0265043Y0055542D01*
X0265053Y0055625D01*
X0265067Y0055708D01*
X0265084Y0055790D01*
X0265106Y0055871D01*
X0265131Y0055950D01*
X0265160Y0056029D01*
X0265193Y0056106D01*
X0265229Y0056181D01*
X0265269Y0056255D01*
X0265312Y0056327D01*
X0265359Y0056396D01*
X0265409Y0056463D01*
X0265462Y0056528D01*
X0265518Y0056590D01*
X0265576Y0056650D01*
X0265638Y0056707D01*
X0265702Y0056760D01*
X0265769Y0056811D01*
X0265838Y0056858D01*
X0265909Y0056903D01*
X0265982Y0056943D01*
X0266057Y0056980D01*
X0266134Y0057014D01*
X0266212Y0057044D01*
X0266291Y0057070D01*
X0266372Y0057093D01*
X0266454Y0057111D01*
X0266536Y0057126D01*
X0266619Y0057137D01*
X0266702Y0057144D01*
X0266786Y0057147D01*
X0266870Y0057146D01*
X0266953Y0057141D01*
X0267037Y0057132D01*
X0267119Y0057119D01*
X0267201Y0057103D01*
X0267282Y0057082D01*
X0267363Y0057058D01*
X0267441Y0057030D01*
X0267519Y0056998D01*
X0267595Y0056962D01*
X0267669Y0056923D01*
X0267741Y0056881D01*
X0267811Y0056835D01*
X0267879Y0056786D01*
X0267944Y0056734D01*
X0268007Y0056679D01*
X0268067Y0056621D01*
X0268125Y0056560D01*
X0268179Y0056496D01*
X0268231Y0056430D01*
X0268279Y0056362D01*
X0268324Y0056291D01*
X0268365Y0056218D01*
X0268404Y0056144D01*
X0268438Y0056068D01*
X0268469Y0055990D01*
X0268496Y0055911D01*
X0268520Y0055830D01*
X0268539Y0055749D01*
X0268555Y0055667D01*
X0268567Y0055584D01*
X0268575Y0055500D01*
X0268579Y0055417D01*
X0268579Y0055333D01*
X0268575Y0055250D01*
X0268567Y0055166D01*
X0268555Y0055083D01*
X0268539Y0055001D01*
X0268520Y0054920D01*
X0268496Y0054839D01*
X0268469Y0054760D01*
X0268438Y0054682D01*
X0268404Y0054606D01*
X0268365Y0054532D01*
X0268324Y0054459D01*
X0268279Y0054388D01*
X0268231Y0054320D01*
X0268179Y0054254D01*
X0268125Y0054190D01*
X0268067Y0054129D01*
X0268007Y0054071D01*
X0267944Y0054016D01*
X0267879Y0053964D01*
X0267811Y0053915D01*
X0267741Y0053869D01*
X0267669Y0053827D01*
X0267595Y0053788D01*
X0267519Y0053752D01*
X0267441Y0053720D01*
X0267363Y0053692D01*
X0267282Y0053668D01*
X0267201Y0053647D01*
X0267119Y0053631D01*
X0267037Y0053618D01*
X0266953Y0053609D01*
X0266870Y0053604D01*
X0266786Y0053603D01*
X0266702Y0053606D01*
X0266619Y0053613D01*
X0266536Y0053624D01*
X0266454Y0053639D01*
X0266372Y0053657D01*
X0266291Y0053680D01*
X0266212Y0053706D01*
X0266134Y0053736D01*
X0266057Y0053770D01*
X0265982Y0053807D01*
X0265909Y0053847D01*
X0265838Y0053892D01*
X0265769Y0053939D01*
X0265702Y0053990D01*
X0265638Y0054043D01*
X0265576Y0054100D01*
X0265518Y0054160D01*
X0265462Y0054222D01*
X0265409Y0054287D01*
X0265359Y0054354D01*
X0265312Y0054423D01*
X0265269Y0054495D01*
X0265229Y0054569D01*
X0265193Y0054644D01*
X0265160Y0054721D01*
X0265131Y0054800D01*
X0265106Y0054879D01*
X0265084Y0054960D01*
X0265067Y0055042D01*
X0265053Y0055125D01*
X0265043Y0055208D01*
X0265037Y0055291D01*
X0265035Y0055375D01*
X0292594Y0055375D02*
X0292596Y0055459D01*
X0292602Y0055542D01*
X0292612Y0055625D01*
X0292626Y0055708D01*
X0292643Y0055790D01*
X0292665Y0055871D01*
X0292690Y0055950D01*
X0292719Y0056029D01*
X0292752Y0056106D01*
X0292788Y0056181D01*
X0292828Y0056255D01*
X0292871Y0056327D01*
X0292918Y0056396D01*
X0292968Y0056463D01*
X0293021Y0056528D01*
X0293077Y0056590D01*
X0293135Y0056650D01*
X0293197Y0056707D01*
X0293261Y0056760D01*
X0293328Y0056811D01*
X0293397Y0056858D01*
X0293468Y0056903D01*
X0293541Y0056943D01*
X0293616Y0056980D01*
X0293693Y0057014D01*
X0293771Y0057044D01*
X0293850Y0057070D01*
X0293931Y0057093D01*
X0294013Y0057111D01*
X0294095Y0057126D01*
X0294178Y0057137D01*
X0294261Y0057144D01*
X0294345Y0057147D01*
X0294429Y0057146D01*
X0294512Y0057141D01*
X0294596Y0057132D01*
X0294678Y0057119D01*
X0294760Y0057103D01*
X0294841Y0057082D01*
X0294922Y0057058D01*
X0295000Y0057030D01*
X0295078Y0056998D01*
X0295154Y0056962D01*
X0295228Y0056923D01*
X0295300Y0056881D01*
X0295370Y0056835D01*
X0295438Y0056786D01*
X0295503Y0056734D01*
X0295566Y0056679D01*
X0295626Y0056621D01*
X0295684Y0056560D01*
X0295738Y0056496D01*
X0295790Y0056430D01*
X0295838Y0056362D01*
X0295883Y0056291D01*
X0295924Y0056218D01*
X0295963Y0056144D01*
X0295997Y0056068D01*
X0296028Y0055990D01*
X0296055Y0055911D01*
X0296079Y0055830D01*
X0296098Y0055749D01*
X0296114Y0055667D01*
X0296126Y0055584D01*
X0296134Y0055500D01*
X0296138Y0055417D01*
X0296138Y0055333D01*
X0296134Y0055250D01*
X0296126Y0055166D01*
X0296114Y0055083D01*
X0296098Y0055001D01*
X0296079Y0054920D01*
X0296055Y0054839D01*
X0296028Y0054760D01*
X0295997Y0054682D01*
X0295963Y0054606D01*
X0295924Y0054532D01*
X0295883Y0054459D01*
X0295838Y0054388D01*
X0295790Y0054320D01*
X0295738Y0054254D01*
X0295684Y0054190D01*
X0295626Y0054129D01*
X0295566Y0054071D01*
X0295503Y0054016D01*
X0295438Y0053964D01*
X0295370Y0053915D01*
X0295300Y0053869D01*
X0295228Y0053827D01*
X0295154Y0053788D01*
X0295078Y0053752D01*
X0295000Y0053720D01*
X0294922Y0053692D01*
X0294841Y0053668D01*
X0294760Y0053647D01*
X0294678Y0053631D01*
X0294596Y0053618D01*
X0294512Y0053609D01*
X0294429Y0053604D01*
X0294345Y0053603D01*
X0294261Y0053606D01*
X0294178Y0053613D01*
X0294095Y0053624D01*
X0294013Y0053639D01*
X0293931Y0053657D01*
X0293850Y0053680D01*
X0293771Y0053706D01*
X0293693Y0053736D01*
X0293616Y0053770D01*
X0293541Y0053807D01*
X0293468Y0053847D01*
X0293397Y0053892D01*
X0293328Y0053939D01*
X0293261Y0053990D01*
X0293197Y0054043D01*
X0293135Y0054100D01*
X0293077Y0054160D01*
X0293021Y0054222D01*
X0292968Y0054287D01*
X0292918Y0054354D01*
X0292871Y0054423D01*
X0292828Y0054495D01*
X0292788Y0054569D01*
X0292752Y0054644D01*
X0292719Y0054721D01*
X0292690Y0054800D01*
X0292665Y0054879D01*
X0292643Y0054960D01*
X0292626Y0055042D01*
X0292612Y0055125D01*
X0292602Y0055208D01*
X0292596Y0055291D01*
X0292594Y0055375D01*
X0375075Y0053406D02*
X0375077Y0053531D01*
X0375083Y0053656D01*
X0375093Y0053780D01*
X0375107Y0053904D01*
X0375124Y0054028D01*
X0375146Y0054151D01*
X0375172Y0054273D01*
X0375201Y0054395D01*
X0375234Y0054515D01*
X0375272Y0054634D01*
X0375312Y0054753D01*
X0375357Y0054869D01*
X0375405Y0054984D01*
X0375457Y0055098D01*
X0375513Y0055210D01*
X0375572Y0055320D01*
X0375634Y0055428D01*
X0375700Y0055535D01*
X0375769Y0055639D01*
X0375842Y0055740D01*
X0375917Y0055840D01*
X0375996Y0055937D01*
X0376078Y0056031D01*
X0376163Y0056123D01*
X0376250Y0056212D01*
X0376341Y0056298D01*
X0376434Y0056381D01*
X0376530Y0056462D01*
X0376628Y0056539D01*
X0376728Y0056613D01*
X0376831Y0056684D01*
X0376936Y0056751D01*
X0377044Y0056816D01*
X0377153Y0056876D01*
X0377264Y0056934D01*
X0377377Y0056987D01*
X0377491Y0057037D01*
X0377607Y0057084D01*
X0377724Y0057126D01*
X0377843Y0057165D01*
X0377963Y0057201D01*
X0378084Y0057232D01*
X0378206Y0057260D01*
X0378328Y0057283D01*
X0378452Y0057303D01*
X0378576Y0057319D01*
X0378700Y0057331D01*
X0378825Y0057339D01*
X0378950Y0057343D01*
X0379074Y0057343D01*
X0379199Y0057339D01*
X0379324Y0057331D01*
X0379448Y0057319D01*
X0379572Y0057303D01*
X0379696Y0057283D01*
X0379818Y0057260D01*
X0379940Y0057232D01*
X0380061Y0057201D01*
X0380181Y0057165D01*
X0380300Y0057126D01*
X0380417Y0057084D01*
X0380533Y0057037D01*
X0380647Y0056987D01*
X0380760Y0056934D01*
X0380871Y0056876D01*
X0380981Y0056816D01*
X0381088Y0056751D01*
X0381193Y0056684D01*
X0381296Y0056613D01*
X0381396Y0056539D01*
X0381494Y0056462D01*
X0381590Y0056381D01*
X0381683Y0056298D01*
X0381774Y0056212D01*
X0381861Y0056123D01*
X0381946Y0056031D01*
X0382028Y0055937D01*
X0382107Y0055840D01*
X0382182Y0055740D01*
X0382255Y0055639D01*
X0382324Y0055535D01*
X0382390Y0055428D01*
X0382452Y0055320D01*
X0382511Y0055210D01*
X0382567Y0055098D01*
X0382619Y0054984D01*
X0382667Y0054869D01*
X0382712Y0054753D01*
X0382752Y0054634D01*
X0382790Y0054515D01*
X0382823Y0054395D01*
X0382852Y0054273D01*
X0382878Y0054151D01*
X0382900Y0054028D01*
X0382917Y0053904D01*
X0382931Y0053780D01*
X0382941Y0053656D01*
X0382947Y0053531D01*
X0382949Y0053406D01*
X0382947Y0053281D01*
X0382941Y0053156D01*
X0382931Y0053032D01*
X0382917Y0052908D01*
X0382900Y0052784D01*
X0382878Y0052661D01*
X0382852Y0052539D01*
X0382823Y0052417D01*
X0382790Y0052297D01*
X0382752Y0052178D01*
X0382712Y0052059D01*
X0382667Y0051943D01*
X0382619Y0051828D01*
X0382567Y0051714D01*
X0382511Y0051602D01*
X0382452Y0051492D01*
X0382390Y0051384D01*
X0382324Y0051277D01*
X0382255Y0051173D01*
X0382182Y0051072D01*
X0382107Y0050972D01*
X0382028Y0050875D01*
X0381946Y0050781D01*
X0381861Y0050689D01*
X0381774Y0050600D01*
X0381683Y0050514D01*
X0381590Y0050431D01*
X0381494Y0050350D01*
X0381396Y0050273D01*
X0381296Y0050199D01*
X0381193Y0050128D01*
X0381088Y0050061D01*
X0380980Y0049996D01*
X0380871Y0049936D01*
X0380760Y0049878D01*
X0380647Y0049825D01*
X0380533Y0049775D01*
X0380417Y0049728D01*
X0380300Y0049686D01*
X0380181Y0049647D01*
X0380061Y0049611D01*
X0379940Y0049580D01*
X0379818Y0049552D01*
X0379696Y0049529D01*
X0379572Y0049509D01*
X0379448Y0049493D01*
X0379324Y0049481D01*
X0379199Y0049473D01*
X0379074Y0049469D01*
X0378950Y0049469D01*
X0378825Y0049473D01*
X0378700Y0049481D01*
X0378576Y0049493D01*
X0378452Y0049509D01*
X0378328Y0049529D01*
X0378206Y0049552D01*
X0378084Y0049580D01*
X0377963Y0049611D01*
X0377843Y0049647D01*
X0377724Y0049686D01*
X0377607Y0049728D01*
X0377491Y0049775D01*
X0377377Y0049825D01*
X0377264Y0049878D01*
X0377153Y0049936D01*
X0377043Y0049996D01*
X0376936Y0050061D01*
X0376831Y0050128D01*
X0376728Y0050199D01*
X0376628Y0050273D01*
X0376530Y0050350D01*
X0376434Y0050431D01*
X0376341Y0050514D01*
X0376250Y0050600D01*
X0376163Y0050689D01*
X0376078Y0050781D01*
X0375996Y0050875D01*
X0375917Y0050972D01*
X0375842Y0051072D01*
X0375769Y0051173D01*
X0375700Y0051277D01*
X0375634Y0051384D01*
X0375572Y0051492D01*
X0375513Y0051602D01*
X0375457Y0051714D01*
X0375405Y0051828D01*
X0375357Y0051943D01*
X0375312Y0052059D01*
X0375272Y0052178D01*
X0375234Y0052297D01*
X0375201Y0052417D01*
X0375172Y0052539D01*
X0375146Y0052661D01*
X0375124Y0052784D01*
X0375107Y0052908D01*
X0375093Y0053032D01*
X0375083Y0053156D01*
X0375077Y0053281D01*
X0375075Y0053406D01*
X0375075Y0309312D02*
X0375077Y0309437D01*
X0375083Y0309562D01*
X0375093Y0309686D01*
X0375107Y0309810D01*
X0375124Y0309934D01*
X0375146Y0310057D01*
X0375172Y0310179D01*
X0375201Y0310301D01*
X0375234Y0310421D01*
X0375272Y0310540D01*
X0375312Y0310659D01*
X0375357Y0310775D01*
X0375405Y0310890D01*
X0375457Y0311004D01*
X0375513Y0311116D01*
X0375572Y0311226D01*
X0375634Y0311334D01*
X0375700Y0311441D01*
X0375769Y0311545D01*
X0375842Y0311646D01*
X0375917Y0311746D01*
X0375996Y0311843D01*
X0376078Y0311937D01*
X0376163Y0312029D01*
X0376250Y0312118D01*
X0376341Y0312204D01*
X0376434Y0312287D01*
X0376530Y0312368D01*
X0376628Y0312445D01*
X0376728Y0312519D01*
X0376831Y0312590D01*
X0376936Y0312657D01*
X0377044Y0312722D01*
X0377153Y0312782D01*
X0377264Y0312840D01*
X0377377Y0312893D01*
X0377491Y0312943D01*
X0377607Y0312990D01*
X0377724Y0313032D01*
X0377843Y0313071D01*
X0377963Y0313107D01*
X0378084Y0313138D01*
X0378206Y0313166D01*
X0378328Y0313189D01*
X0378452Y0313209D01*
X0378576Y0313225D01*
X0378700Y0313237D01*
X0378825Y0313245D01*
X0378950Y0313249D01*
X0379074Y0313249D01*
X0379199Y0313245D01*
X0379324Y0313237D01*
X0379448Y0313225D01*
X0379572Y0313209D01*
X0379696Y0313189D01*
X0379818Y0313166D01*
X0379940Y0313138D01*
X0380061Y0313107D01*
X0380181Y0313071D01*
X0380300Y0313032D01*
X0380417Y0312990D01*
X0380533Y0312943D01*
X0380647Y0312893D01*
X0380760Y0312840D01*
X0380871Y0312782D01*
X0380981Y0312722D01*
X0381088Y0312657D01*
X0381193Y0312590D01*
X0381296Y0312519D01*
X0381396Y0312445D01*
X0381494Y0312368D01*
X0381590Y0312287D01*
X0381683Y0312204D01*
X0381774Y0312118D01*
X0381861Y0312029D01*
X0381946Y0311937D01*
X0382028Y0311843D01*
X0382107Y0311746D01*
X0382182Y0311646D01*
X0382255Y0311545D01*
X0382324Y0311441D01*
X0382390Y0311334D01*
X0382452Y0311226D01*
X0382511Y0311116D01*
X0382567Y0311004D01*
X0382619Y0310890D01*
X0382667Y0310775D01*
X0382712Y0310659D01*
X0382752Y0310540D01*
X0382790Y0310421D01*
X0382823Y0310301D01*
X0382852Y0310179D01*
X0382878Y0310057D01*
X0382900Y0309934D01*
X0382917Y0309810D01*
X0382931Y0309686D01*
X0382941Y0309562D01*
X0382947Y0309437D01*
X0382949Y0309312D01*
X0382947Y0309187D01*
X0382941Y0309062D01*
X0382931Y0308938D01*
X0382917Y0308814D01*
X0382900Y0308690D01*
X0382878Y0308567D01*
X0382852Y0308445D01*
X0382823Y0308323D01*
X0382790Y0308203D01*
X0382752Y0308084D01*
X0382712Y0307965D01*
X0382667Y0307849D01*
X0382619Y0307734D01*
X0382567Y0307620D01*
X0382511Y0307508D01*
X0382452Y0307398D01*
X0382390Y0307290D01*
X0382324Y0307183D01*
X0382255Y0307079D01*
X0382182Y0306978D01*
X0382107Y0306878D01*
X0382028Y0306781D01*
X0381946Y0306687D01*
X0381861Y0306595D01*
X0381774Y0306506D01*
X0381683Y0306420D01*
X0381590Y0306337D01*
X0381494Y0306256D01*
X0381396Y0306179D01*
X0381296Y0306105D01*
X0381193Y0306034D01*
X0381088Y0305967D01*
X0380980Y0305902D01*
X0380871Y0305842D01*
X0380760Y0305784D01*
X0380647Y0305731D01*
X0380533Y0305681D01*
X0380417Y0305634D01*
X0380300Y0305592D01*
X0380181Y0305553D01*
X0380061Y0305517D01*
X0379940Y0305486D01*
X0379818Y0305458D01*
X0379696Y0305435D01*
X0379572Y0305415D01*
X0379448Y0305399D01*
X0379324Y0305387D01*
X0379199Y0305379D01*
X0379074Y0305375D01*
X0378950Y0305375D01*
X0378825Y0305379D01*
X0378700Y0305387D01*
X0378576Y0305399D01*
X0378452Y0305415D01*
X0378328Y0305435D01*
X0378206Y0305458D01*
X0378084Y0305486D01*
X0377963Y0305517D01*
X0377843Y0305553D01*
X0377724Y0305592D01*
X0377607Y0305634D01*
X0377491Y0305681D01*
X0377377Y0305731D01*
X0377264Y0305784D01*
X0377153Y0305842D01*
X0377043Y0305902D01*
X0376936Y0305967D01*
X0376831Y0306034D01*
X0376728Y0306105D01*
X0376628Y0306179D01*
X0376530Y0306256D01*
X0376434Y0306337D01*
X0376341Y0306420D01*
X0376250Y0306506D01*
X0376163Y0306595D01*
X0376078Y0306687D01*
X0375996Y0306781D01*
X0375917Y0306878D01*
X0375842Y0306978D01*
X0375769Y0307079D01*
X0375700Y0307183D01*
X0375634Y0307290D01*
X0375572Y0307398D01*
X0375513Y0307508D01*
X0375457Y0307620D01*
X0375405Y0307734D01*
X0375357Y0307849D01*
X0375312Y0307965D01*
X0375272Y0308084D01*
X0375234Y0308203D01*
X0375201Y0308323D01*
X0375172Y0308445D01*
X0375146Y0308567D01*
X0375124Y0308690D01*
X0375107Y0308814D01*
X0375093Y0308938D01*
X0375083Y0309062D01*
X0375077Y0309187D01*
X0375075Y0309312D01*
X0040429Y0309312D02*
X0040431Y0309437D01*
X0040437Y0309562D01*
X0040447Y0309686D01*
X0040461Y0309810D01*
X0040478Y0309934D01*
X0040500Y0310057D01*
X0040526Y0310179D01*
X0040555Y0310301D01*
X0040588Y0310421D01*
X0040626Y0310540D01*
X0040666Y0310659D01*
X0040711Y0310775D01*
X0040759Y0310890D01*
X0040811Y0311004D01*
X0040867Y0311116D01*
X0040926Y0311226D01*
X0040988Y0311334D01*
X0041054Y0311441D01*
X0041123Y0311545D01*
X0041196Y0311646D01*
X0041271Y0311746D01*
X0041350Y0311843D01*
X0041432Y0311937D01*
X0041517Y0312029D01*
X0041604Y0312118D01*
X0041695Y0312204D01*
X0041788Y0312287D01*
X0041884Y0312368D01*
X0041982Y0312445D01*
X0042082Y0312519D01*
X0042185Y0312590D01*
X0042290Y0312657D01*
X0042398Y0312722D01*
X0042507Y0312782D01*
X0042618Y0312840D01*
X0042731Y0312893D01*
X0042845Y0312943D01*
X0042961Y0312990D01*
X0043078Y0313032D01*
X0043197Y0313071D01*
X0043317Y0313107D01*
X0043438Y0313138D01*
X0043560Y0313166D01*
X0043682Y0313189D01*
X0043806Y0313209D01*
X0043930Y0313225D01*
X0044054Y0313237D01*
X0044179Y0313245D01*
X0044304Y0313249D01*
X0044428Y0313249D01*
X0044553Y0313245D01*
X0044678Y0313237D01*
X0044802Y0313225D01*
X0044926Y0313209D01*
X0045050Y0313189D01*
X0045172Y0313166D01*
X0045294Y0313138D01*
X0045415Y0313107D01*
X0045535Y0313071D01*
X0045654Y0313032D01*
X0045771Y0312990D01*
X0045887Y0312943D01*
X0046001Y0312893D01*
X0046114Y0312840D01*
X0046225Y0312782D01*
X0046335Y0312722D01*
X0046442Y0312657D01*
X0046547Y0312590D01*
X0046650Y0312519D01*
X0046750Y0312445D01*
X0046848Y0312368D01*
X0046944Y0312287D01*
X0047037Y0312204D01*
X0047128Y0312118D01*
X0047215Y0312029D01*
X0047300Y0311937D01*
X0047382Y0311843D01*
X0047461Y0311746D01*
X0047536Y0311646D01*
X0047609Y0311545D01*
X0047678Y0311441D01*
X0047744Y0311334D01*
X0047806Y0311226D01*
X0047865Y0311116D01*
X0047921Y0311004D01*
X0047973Y0310890D01*
X0048021Y0310775D01*
X0048066Y0310659D01*
X0048106Y0310540D01*
X0048144Y0310421D01*
X0048177Y0310301D01*
X0048206Y0310179D01*
X0048232Y0310057D01*
X0048254Y0309934D01*
X0048271Y0309810D01*
X0048285Y0309686D01*
X0048295Y0309562D01*
X0048301Y0309437D01*
X0048303Y0309312D01*
X0048301Y0309187D01*
X0048295Y0309062D01*
X0048285Y0308938D01*
X0048271Y0308814D01*
X0048254Y0308690D01*
X0048232Y0308567D01*
X0048206Y0308445D01*
X0048177Y0308323D01*
X0048144Y0308203D01*
X0048106Y0308084D01*
X0048066Y0307965D01*
X0048021Y0307849D01*
X0047973Y0307734D01*
X0047921Y0307620D01*
X0047865Y0307508D01*
X0047806Y0307398D01*
X0047744Y0307290D01*
X0047678Y0307183D01*
X0047609Y0307079D01*
X0047536Y0306978D01*
X0047461Y0306878D01*
X0047382Y0306781D01*
X0047300Y0306687D01*
X0047215Y0306595D01*
X0047128Y0306506D01*
X0047037Y0306420D01*
X0046944Y0306337D01*
X0046848Y0306256D01*
X0046750Y0306179D01*
X0046650Y0306105D01*
X0046547Y0306034D01*
X0046442Y0305967D01*
X0046334Y0305902D01*
X0046225Y0305842D01*
X0046114Y0305784D01*
X0046001Y0305731D01*
X0045887Y0305681D01*
X0045771Y0305634D01*
X0045654Y0305592D01*
X0045535Y0305553D01*
X0045415Y0305517D01*
X0045294Y0305486D01*
X0045172Y0305458D01*
X0045050Y0305435D01*
X0044926Y0305415D01*
X0044802Y0305399D01*
X0044678Y0305387D01*
X0044553Y0305379D01*
X0044428Y0305375D01*
X0044304Y0305375D01*
X0044179Y0305379D01*
X0044054Y0305387D01*
X0043930Y0305399D01*
X0043806Y0305415D01*
X0043682Y0305435D01*
X0043560Y0305458D01*
X0043438Y0305486D01*
X0043317Y0305517D01*
X0043197Y0305553D01*
X0043078Y0305592D01*
X0042961Y0305634D01*
X0042845Y0305681D01*
X0042731Y0305731D01*
X0042618Y0305784D01*
X0042507Y0305842D01*
X0042397Y0305902D01*
X0042290Y0305967D01*
X0042185Y0306034D01*
X0042082Y0306105D01*
X0041982Y0306179D01*
X0041884Y0306256D01*
X0041788Y0306337D01*
X0041695Y0306420D01*
X0041604Y0306506D01*
X0041517Y0306595D01*
X0041432Y0306687D01*
X0041350Y0306781D01*
X0041271Y0306878D01*
X0041196Y0306978D01*
X0041123Y0307079D01*
X0041054Y0307183D01*
X0040988Y0307290D01*
X0040926Y0307398D01*
X0040867Y0307508D01*
X0040811Y0307620D01*
X0040759Y0307734D01*
X0040711Y0307849D01*
X0040666Y0307965D01*
X0040626Y0308084D01*
X0040588Y0308203D01*
X0040555Y0308323D01*
X0040526Y0308445D01*
X0040500Y0308567D01*
X0040478Y0308690D01*
X0040461Y0308814D01*
X0040447Y0308938D01*
X0040437Y0309062D01*
X0040431Y0309187D01*
X0040429Y0309312D01*
D11*
X0258382Y0262619D03*
X0258382Y0255139D03*
X0313264Y0135887D03*
X0313264Y0128406D03*
D12*
X0277417Y0157147D03*
X0270724Y0157147D03*
X0256492Y0149115D03*
X0249799Y0149115D03*
X0301138Y0163072D03*
X0307831Y0163072D03*
X0301531Y0215375D03*
X0301531Y0222068D03*
X0269228Y0218721D03*
X0262535Y0218721D03*
X0258382Y0240375D03*
X0258382Y0247068D03*
X0306256Y0264588D03*
X0306256Y0271280D03*
D13*
X0289228Y0269115D03*
X0281748Y0269115D03*
X0300744Y0155572D03*
X0308224Y0155572D03*
D14*
X0313480Y0152698D03*
X0313480Y0146005D03*
X0321768Y0146399D03*
X0321768Y0139706D03*
X0316886Y0113997D03*
X0310193Y0113997D03*
X0268264Y0115966D03*
X0261571Y0115966D03*
X0262358Y0149056D03*
X0262358Y0155749D03*
X0244366Y0155966D03*
X0244366Y0149273D03*
X0235705Y0155572D03*
X0235705Y0162265D03*
X0226256Y0155966D03*
X0226256Y0149273D03*
X0217594Y0155572D03*
X0217594Y0162265D03*
X0207358Y0155966D03*
X0207358Y0149273D03*
X0198697Y0149273D03*
X0198697Y0155966D03*
X0190823Y0155966D03*
X0190823Y0149273D03*
X0182949Y0149273D03*
X0182949Y0155966D03*
X0173894Y0155966D03*
X0173894Y0149273D03*
X0208854Y0116674D03*
X0208854Y0109981D03*
X0208933Y0102422D03*
X0208933Y0095729D03*
X0283224Y0157147D03*
X0289917Y0157147D03*
X0269169Y0205375D03*
X0269169Y0212068D03*
X0258382Y0227875D03*
X0258382Y0234568D03*
X0250882Y0255532D03*
X0250882Y0262225D03*
X0265882Y0265375D03*
X0265882Y0272068D03*
X0272594Y0272068D03*
X0272594Y0265375D03*
X0224878Y0211674D03*
X0218185Y0211674D03*
X0185193Y0211635D03*
X0178500Y0211635D03*
D15*
X0222713Y0139627D03*
X0222713Y0128603D03*
X0236492Y0128603D03*
X0236492Y0139627D03*
X0249287Y0139627D03*
X0249287Y0128603D03*
X0262083Y0128603D03*
X0262083Y0139627D03*
D16*
X0345941Y0157540D03*
X0345941Y0165021D03*
X0350665Y0174076D03*
X0350665Y0181556D03*
D17*
X0288894Y0181221D03*
X0277870Y0181221D03*
X0277870Y0193721D03*
X0288894Y0193721D03*
X0288894Y0206221D03*
X0277870Y0206221D03*
X0277870Y0218721D03*
X0288894Y0218721D03*
D18*
X0368185Y0197107D03*
X0368185Y0189233D03*
X0368185Y0181359D03*
X0368185Y0173485D03*
X0368185Y0165611D03*
X0369563Y0130178D03*
X0369563Y0122304D03*
D19*
X0377043Y0156359D03*
X0377043Y0206359D03*
D20*
X0300272Y0042186D03*
X0284524Y0041399D03*
X0272713Y0041399D03*
X0099484Y0069351D03*
X0087673Y0069351D03*
X0071925Y0068564D03*
D21*
X0066020Y0041792D03*
X0306177Y0068958D03*
D22*
X0302339Y0299312D03*
X0302339Y0309312D03*
X0302339Y0319312D03*
X0282457Y0319312D03*
X0282457Y0309312D03*
X0282457Y0299312D03*
D23*
X0318087Y0256025D03*
X0318087Y0232206D03*
D24*
X0300843Y0097442D03*
X0277024Y0097442D03*
D25*
X0279661Y0243721D03*
X0272220Y0243721D03*
X0287102Y0243721D03*
X0294543Y0243721D03*
D26*
X0295503Y0235153D02*
X0295503Y0229731D01*
X0294293Y0229731D01*
X0294293Y0235153D01*
X0295503Y0235153D01*
X0295503Y0230115D02*
X0294293Y0230115D01*
X0294293Y0230499D02*
X0295503Y0230499D01*
X0295503Y0230883D02*
X0294293Y0230883D01*
X0294293Y0231267D02*
X0295503Y0231267D01*
X0295503Y0231651D02*
X0294293Y0231651D01*
X0294293Y0232035D02*
X0295503Y0232035D01*
X0295503Y0232419D02*
X0294293Y0232419D01*
X0294293Y0232803D02*
X0295503Y0232803D01*
X0295503Y0233187D02*
X0294293Y0233187D01*
X0294293Y0233571D02*
X0295503Y0233571D01*
X0295503Y0233955D02*
X0294293Y0233955D01*
X0294293Y0234339D02*
X0295503Y0234339D01*
X0295503Y0234723D02*
X0294293Y0234723D01*
X0294293Y0235107D02*
X0295503Y0235107D01*
X0298062Y0235153D02*
X0298062Y0229731D01*
X0296852Y0229731D01*
X0296852Y0235153D01*
X0298062Y0235153D01*
X0298062Y0230115D02*
X0296852Y0230115D01*
X0296852Y0230499D02*
X0298062Y0230499D01*
X0298062Y0230883D02*
X0296852Y0230883D01*
X0296852Y0231267D02*
X0298062Y0231267D01*
X0298062Y0231651D02*
X0296852Y0231651D01*
X0296852Y0232035D02*
X0298062Y0232035D01*
X0298062Y0232419D02*
X0296852Y0232419D01*
X0296852Y0232803D02*
X0298062Y0232803D01*
X0298062Y0233187D02*
X0296852Y0233187D01*
X0296852Y0233571D02*
X0298062Y0233571D01*
X0298062Y0233955D02*
X0296852Y0233955D01*
X0296852Y0234339D02*
X0298062Y0234339D01*
X0298062Y0234723D02*
X0296852Y0234723D01*
X0296852Y0235107D02*
X0298062Y0235107D01*
X0300621Y0235153D02*
X0300621Y0229731D01*
X0299411Y0229731D01*
X0299411Y0235153D01*
X0300621Y0235153D01*
X0300621Y0230115D02*
X0299411Y0230115D01*
X0299411Y0230499D02*
X0300621Y0230499D01*
X0300621Y0230883D02*
X0299411Y0230883D01*
X0299411Y0231267D02*
X0300621Y0231267D01*
X0300621Y0231651D02*
X0299411Y0231651D01*
X0299411Y0232035D02*
X0300621Y0232035D01*
X0300621Y0232419D02*
X0299411Y0232419D01*
X0299411Y0232803D02*
X0300621Y0232803D01*
X0300621Y0233187D02*
X0299411Y0233187D01*
X0299411Y0233571D02*
X0300621Y0233571D01*
X0300621Y0233955D02*
X0299411Y0233955D01*
X0299411Y0234339D02*
X0300621Y0234339D01*
X0300621Y0234723D02*
X0299411Y0234723D01*
X0299411Y0235107D02*
X0300621Y0235107D01*
X0292944Y0235153D02*
X0292944Y0229731D01*
X0291734Y0229731D01*
X0291734Y0235153D01*
X0292944Y0235153D01*
X0292944Y0230115D02*
X0291734Y0230115D01*
X0291734Y0230499D02*
X0292944Y0230499D01*
X0292944Y0230883D02*
X0291734Y0230883D01*
X0291734Y0231267D02*
X0292944Y0231267D01*
X0292944Y0231651D02*
X0291734Y0231651D01*
X0291734Y0232035D02*
X0292944Y0232035D01*
X0292944Y0232419D02*
X0291734Y0232419D01*
X0291734Y0232803D02*
X0292944Y0232803D01*
X0292944Y0233187D02*
X0291734Y0233187D01*
X0291734Y0233571D02*
X0292944Y0233571D01*
X0292944Y0233955D02*
X0291734Y0233955D01*
X0291734Y0234339D02*
X0292944Y0234339D01*
X0292944Y0234723D02*
X0291734Y0234723D01*
X0291734Y0235107D02*
X0292944Y0235107D01*
X0290385Y0235153D02*
X0290385Y0229731D01*
X0289175Y0229731D01*
X0289175Y0235153D01*
X0290385Y0235153D01*
X0290385Y0230115D02*
X0289175Y0230115D01*
X0289175Y0230499D02*
X0290385Y0230499D01*
X0290385Y0230883D02*
X0289175Y0230883D01*
X0289175Y0231267D02*
X0290385Y0231267D01*
X0290385Y0231651D02*
X0289175Y0231651D01*
X0289175Y0232035D02*
X0290385Y0232035D01*
X0290385Y0232419D02*
X0289175Y0232419D01*
X0289175Y0232803D02*
X0290385Y0232803D01*
X0290385Y0233187D02*
X0289175Y0233187D01*
X0289175Y0233571D02*
X0290385Y0233571D01*
X0290385Y0233955D02*
X0289175Y0233955D01*
X0289175Y0234339D02*
X0290385Y0234339D01*
X0290385Y0234723D02*
X0289175Y0234723D01*
X0289175Y0235107D02*
X0290385Y0235107D01*
X0287825Y0235153D02*
X0287825Y0229731D01*
X0286615Y0229731D01*
X0286615Y0235153D01*
X0287825Y0235153D01*
X0287825Y0230115D02*
X0286615Y0230115D01*
X0286615Y0230499D02*
X0287825Y0230499D01*
X0287825Y0230883D02*
X0286615Y0230883D01*
X0286615Y0231267D02*
X0287825Y0231267D01*
X0287825Y0231651D02*
X0286615Y0231651D01*
X0286615Y0232035D02*
X0287825Y0232035D01*
X0287825Y0232419D02*
X0286615Y0232419D01*
X0286615Y0232803D02*
X0287825Y0232803D01*
X0287825Y0233187D02*
X0286615Y0233187D01*
X0286615Y0233571D02*
X0287825Y0233571D01*
X0287825Y0233955D02*
X0286615Y0233955D01*
X0286615Y0234339D02*
X0287825Y0234339D01*
X0287825Y0234723D02*
X0286615Y0234723D01*
X0286615Y0235107D02*
X0287825Y0235107D01*
X0285266Y0235153D02*
X0285266Y0229731D01*
X0284056Y0229731D01*
X0284056Y0235153D01*
X0285266Y0235153D01*
X0285266Y0230115D02*
X0284056Y0230115D01*
X0284056Y0230499D02*
X0285266Y0230499D01*
X0285266Y0230883D02*
X0284056Y0230883D01*
X0284056Y0231267D02*
X0285266Y0231267D01*
X0285266Y0231651D02*
X0284056Y0231651D01*
X0284056Y0232035D02*
X0285266Y0232035D01*
X0285266Y0232419D02*
X0284056Y0232419D01*
X0284056Y0232803D02*
X0285266Y0232803D01*
X0285266Y0233187D02*
X0284056Y0233187D01*
X0284056Y0233571D02*
X0285266Y0233571D01*
X0285266Y0233955D02*
X0284056Y0233955D01*
X0284056Y0234339D02*
X0285266Y0234339D01*
X0285266Y0234723D02*
X0284056Y0234723D01*
X0284056Y0235107D02*
X0285266Y0235107D01*
X0282707Y0235153D02*
X0282707Y0229731D01*
X0281497Y0229731D01*
X0281497Y0235153D01*
X0282707Y0235153D01*
X0282707Y0230115D02*
X0281497Y0230115D01*
X0281497Y0230499D02*
X0282707Y0230499D01*
X0282707Y0230883D02*
X0281497Y0230883D01*
X0281497Y0231267D02*
X0282707Y0231267D01*
X0282707Y0231651D02*
X0281497Y0231651D01*
X0281497Y0232035D02*
X0282707Y0232035D01*
X0282707Y0232419D02*
X0281497Y0232419D01*
X0281497Y0232803D02*
X0282707Y0232803D01*
X0282707Y0233187D02*
X0281497Y0233187D01*
X0281497Y0233571D02*
X0282707Y0233571D01*
X0282707Y0233955D02*
X0281497Y0233955D01*
X0281497Y0234339D02*
X0282707Y0234339D01*
X0282707Y0234723D02*
X0281497Y0234723D01*
X0281497Y0235107D02*
X0282707Y0235107D01*
X0280148Y0235153D02*
X0280148Y0229731D01*
X0278938Y0229731D01*
X0278938Y0235153D01*
X0280148Y0235153D01*
X0280148Y0230115D02*
X0278938Y0230115D01*
X0278938Y0230499D02*
X0280148Y0230499D01*
X0280148Y0230883D02*
X0278938Y0230883D01*
X0278938Y0231267D02*
X0280148Y0231267D01*
X0280148Y0231651D02*
X0278938Y0231651D01*
X0278938Y0232035D02*
X0280148Y0232035D01*
X0280148Y0232419D02*
X0278938Y0232419D01*
X0278938Y0232803D02*
X0280148Y0232803D01*
X0280148Y0233187D02*
X0278938Y0233187D01*
X0278938Y0233571D02*
X0280148Y0233571D01*
X0280148Y0233955D02*
X0278938Y0233955D01*
X0278938Y0234339D02*
X0280148Y0234339D01*
X0280148Y0234723D02*
X0278938Y0234723D01*
X0278938Y0235107D02*
X0280148Y0235107D01*
X0277589Y0235153D02*
X0277589Y0229731D01*
X0276379Y0229731D01*
X0276379Y0235153D01*
X0277589Y0235153D01*
X0277589Y0230115D02*
X0276379Y0230115D01*
X0276379Y0230499D02*
X0277589Y0230499D01*
X0277589Y0230883D02*
X0276379Y0230883D01*
X0276379Y0231267D02*
X0277589Y0231267D01*
X0277589Y0231651D02*
X0276379Y0231651D01*
X0276379Y0232035D02*
X0277589Y0232035D01*
X0277589Y0232419D02*
X0276379Y0232419D01*
X0276379Y0232803D02*
X0277589Y0232803D01*
X0277589Y0233187D02*
X0276379Y0233187D01*
X0276379Y0233571D02*
X0277589Y0233571D01*
X0277589Y0233955D02*
X0276379Y0233955D01*
X0276379Y0234339D02*
X0277589Y0234339D01*
X0277589Y0234723D02*
X0276379Y0234723D01*
X0276379Y0235107D02*
X0277589Y0235107D01*
X0275030Y0235153D02*
X0275030Y0229731D01*
X0273820Y0229731D01*
X0273820Y0235153D01*
X0275030Y0235153D01*
X0275030Y0230115D02*
X0273820Y0230115D01*
X0273820Y0230499D02*
X0275030Y0230499D01*
X0275030Y0230883D02*
X0273820Y0230883D01*
X0273820Y0231267D02*
X0275030Y0231267D01*
X0275030Y0231651D02*
X0273820Y0231651D01*
X0273820Y0232035D02*
X0275030Y0232035D01*
X0275030Y0232419D02*
X0273820Y0232419D01*
X0273820Y0232803D02*
X0275030Y0232803D01*
X0275030Y0233187D02*
X0273820Y0233187D01*
X0273820Y0233571D02*
X0275030Y0233571D01*
X0275030Y0233955D02*
X0273820Y0233955D01*
X0273820Y0234339D02*
X0275030Y0234339D01*
X0275030Y0234723D02*
X0273820Y0234723D01*
X0273820Y0235107D02*
X0275030Y0235107D01*
X0272471Y0235153D02*
X0272471Y0229731D01*
X0271261Y0229731D01*
X0271261Y0235153D01*
X0272471Y0235153D01*
X0272471Y0230115D02*
X0271261Y0230115D01*
X0271261Y0230499D02*
X0272471Y0230499D01*
X0272471Y0230883D02*
X0271261Y0230883D01*
X0271261Y0231267D02*
X0272471Y0231267D01*
X0272471Y0231651D02*
X0271261Y0231651D01*
X0271261Y0232035D02*
X0272471Y0232035D01*
X0272471Y0232419D02*
X0271261Y0232419D01*
X0271261Y0232803D02*
X0272471Y0232803D01*
X0272471Y0233187D02*
X0271261Y0233187D01*
X0271261Y0233571D02*
X0272471Y0233571D01*
X0272471Y0233955D02*
X0271261Y0233955D01*
X0271261Y0234339D02*
X0272471Y0234339D01*
X0272471Y0234723D02*
X0271261Y0234723D01*
X0271261Y0235107D02*
X0272471Y0235107D01*
X0269912Y0235153D02*
X0269912Y0229731D01*
X0268702Y0229731D01*
X0268702Y0235153D01*
X0269912Y0235153D01*
X0269912Y0230115D02*
X0268702Y0230115D01*
X0268702Y0230499D02*
X0269912Y0230499D01*
X0269912Y0230883D02*
X0268702Y0230883D01*
X0268702Y0231267D02*
X0269912Y0231267D01*
X0269912Y0231651D02*
X0268702Y0231651D01*
X0268702Y0232035D02*
X0269912Y0232035D01*
X0269912Y0232419D02*
X0268702Y0232419D01*
X0268702Y0232803D02*
X0269912Y0232803D01*
X0269912Y0233187D02*
X0268702Y0233187D01*
X0268702Y0233571D02*
X0269912Y0233571D01*
X0269912Y0233955D02*
X0268702Y0233955D01*
X0268702Y0234339D02*
X0269912Y0234339D01*
X0269912Y0234723D02*
X0268702Y0234723D01*
X0268702Y0235107D02*
X0269912Y0235107D01*
X0267353Y0235153D02*
X0267353Y0229731D01*
X0266143Y0229731D01*
X0266143Y0235153D01*
X0267353Y0235153D01*
X0267353Y0230115D02*
X0266143Y0230115D01*
X0266143Y0230499D02*
X0267353Y0230499D01*
X0267353Y0230883D02*
X0266143Y0230883D01*
X0266143Y0231267D02*
X0267353Y0231267D01*
X0267353Y0231651D02*
X0266143Y0231651D01*
X0266143Y0232035D02*
X0267353Y0232035D01*
X0267353Y0232419D02*
X0266143Y0232419D01*
X0266143Y0232803D02*
X0267353Y0232803D01*
X0267353Y0233187D02*
X0266143Y0233187D01*
X0266143Y0233571D02*
X0267353Y0233571D01*
X0267353Y0233955D02*
X0266143Y0233955D01*
X0266143Y0234339D02*
X0267353Y0234339D01*
X0267353Y0234723D02*
X0266143Y0234723D01*
X0266143Y0235107D02*
X0267353Y0235107D01*
X0267353Y0252290D02*
X0267353Y0257712D01*
X0267353Y0252290D02*
X0266143Y0252290D01*
X0266143Y0257712D01*
X0267353Y0257712D01*
X0267353Y0252674D02*
X0266143Y0252674D01*
X0266143Y0253058D02*
X0267353Y0253058D01*
X0267353Y0253442D02*
X0266143Y0253442D01*
X0266143Y0253826D02*
X0267353Y0253826D01*
X0267353Y0254210D02*
X0266143Y0254210D01*
X0266143Y0254594D02*
X0267353Y0254594D01*
X0267353Y0254978D02*
X0266143Y0254978D01*
X0266143Y0255362D02*
X0267353Y0255362D01*
X0267353Y0255746D02*
X0266143Y0255746D01*
X0266143Y0256130D02*
X0267353Y0256130D01*
X0267353Y0256514D02*
X0266143Y0256514D01*
X0266143Y0256898D02*
X0267353Y0256898D01*
X0267353Y0257282D02*
X0266143Y0257282D01*
X0266143Y0257666D02*
X0267353Y0257666D01*
X0269912Y0257712D02*
X0269912Y0252290D01*
X0268702Y0252290D01*
X0268702Y0257712D01*
X0269912Y0257712D01*
X0269912Y0252674D02*
X0268702Y0252674D01*
X0268702Y0253058D02*
X0269912Y0253058D01*
X0269912Y0253442D02*
X0268702Y0253442D01*
X0268702Y0253826D02*
X0269912Y0253826D01*
X0269912Y0254210D02*
X0268702Y0254210D01*
X0268702Y0254594D02*
X0269912Y0254594D01*
X0269912Y0254978D02*
X0268702Y0254978D01*
X0268702Y0255362D02*
X0269912Y0255362D01*
X0269912Y0255746D02*
X0268702Y0255746D01*
X0268702Y0256130D02*
X0269912Y0256130D01*
X0269912Y0256514D02*
X0268702Y0256514D01*
X0268702Y0256898D02*
X0269912Y0256898D01*
X0269912Y0257282D02*
X0268702Y0257282D01*
X0268702Y0257666D02*
X0269912Y0257666D01*
X0272471Y0257712D02*
X0272471Y0252290D01*
X0271261Y0252290D01*
X0271261Y0257712D01*
X0272471Y0257712D01*
X0272471Y0252674D02*
X0271261Y0252674D01*
X0271261Y0253058D02*
X0272471Y0253058D01*
X0272471Y0253442D02*
X0271261Y0253442D01*
X0271261Y0253826D02*
X0272471Y0253826D01*
X0272471Y0254210D02*
X0271261Y0254210D01*
X0271261Y0254594D02*
X0272471Y0254594D01*
X0272471Y0254978D02*
X0271261Y0254978D01*
X0271261Y0255362D02*
X0272471Y0255362D01*
X0272471Y0255746D02*
X0271261Y0255746D01*
X0271261Y0256130D02*
X0272471Y0256130D01*
X0272471Y0256514D02*
X0271261Y0256514D01*
X0271261Y0256898D02*
X0272471Y0256898D01*
X0272471Y0257282D02*
X0271261Y0257282D01*
X0271261Y0257666D02*
X0272471Y0257666D01*
X0275030Y0257712D02*
X0275030Y0252290D01*
X0273820Y0252290D01*
X0273820Y0257712D01*
X0275030Y0257712D01*
X0275030Y0252674D02*
X0273820Y0252674D01*
X0273820Y0253058D02*
X0275030Y0253058D01*
X0275030Y0253442D02*
X0273820Y0253442D01*
X0273820Y0253826D02*
X0275030Y0253826D01*
X0275030Y0254210D02*
X0273820Y0254210D01*
X0273820Y0254594D02*
X0275030Y0254594D01*
X0275030Y0254978D02*
X0273820Y0254978D01*
X0273820Y0255362D02*
X0275030Y0255362D01*
X0275030Y0255746D02*
X0273820Y0255746D01*
X0273820Y0256130D02*
X0275030Y0256130D01*
X0275030Y0256514D02*
X0273820Y0256514D01*
X0273820Y0256898D02*
X0275030Y0256898D01*
X0275030Y0257282D02*
X0273820Y0257282D01*
X0273820Y0257666D02*
X0275030Y0257666D01*
X0277589Y0257712D02*
X0277589Y0252290D01*
X0276379Y0252290D01*
X0276379Y0257712D01*
X0277589Y0257712D01*
X0277589Y0252674D02*
X0276379Y0252674D01*
X0276379Y0253058D02*
X0277589Y0253058D01*
X0277589Y0253442D02*
X0276379Y0253442D01*
X0276379Y0253826D02*
X0277589Y0253826D01*
X0277589Y0254210D02*
X0276379Y0254210D01*
X0276379Y0254594D02*
X0277589Y0254594D01*
X0277589Y0254978D02*
X0276379Y0254978D01*
X0276379Y0255362D02*
X0277589Y0255362D01*
X0277589Y0255746D02*
X0276379Y0255746D01*
X0276379Y0256130D02*
X0277589Y0256130D01*
X0277589Y0256514D02*
X0276379Y0256514D01*
X0276379Y0256898D02*
X0277589Y0256898D01*
X0277589Y0257282D02*
X0276379Y0257282D01*
X0276379Y0257666D02*
X0277589Y0257666D01*
X0280148Y0257712D02*
X0280148Y0252290D01*
X0278938Y0252290D01*
X0278938Y0257712D01*
X0280148Y0257712D01*
X0280148Y0252674D02*
X0278938Y0252674D01*
X0278938Y0253058D02*
X0280148Y0253058D01*
X0280148Y0253442D02*
X0278938Y0253442D01*
X0278938Y0253826D02*
X0280148Y0253826D01*
X0280148Y0254210D02*
X0278938Y0254210D01*
X0278938Y0254594D02*
X0280148Y0254594D01*
X0280148Y0254978D02*
X0278938Y0254978D01*
X0278938Y0255362D02*
X0280148Y0255362D01*
X0280148Y0255746D02*
X0278938Y0255746D01*
X0278938Y0256130D02*
X0280148Y0256130D01*
X0280148Y0256514D02*
X0278938Y0256514D01*
X0278938Y0256898D02*
X0280148Y0256898D01*
X0280148Y0257282D02*
X0278938Y0257282D01*
X0278938Y0257666D02*
X0280148Y0257666D01*
X0282707Y0257712D02*
X0282707Y0252290D01*
X0281497Y0252290D01*
X0281497Y0257712D01*
X0282707Y0257712D01*
X0282707Y0252674D02*
X0281497Y0252674D01*
X0281497Y0253058D02*
X0282707Y0253058D01*
X0282707Y0253442D02*
X0281497Y0253442D01*
X0281497Y0253826D02*
X0282707Y0253826D01*
X0282707Y0254210D02*
X0281497Y0254210D01*
X0281497Y0254594D02*
X0282707Y0254594D01*
X0282707Y0254978D02*
X0281497Y0254978D01*
X0281497Y0255362D02*
X0282707Y0255362D01*
X0282707Y0255746D02*
X0281497Y0255746D01*
X0281497Y0256130D02*
X0282707Y0256130D01*
X0282707Y0256514D02*
X0281497Y0256514D01*
X0281497Y0256898D02*
X0282707Y0256898D01*
X0282707Y0257282D02*
X0281497Y0257282D01*
X0281497Y0257666D02*
X0282707Y0257666D01*
X0285266Y0257712D02*
X0285266Y0252290D01*
X0284056Y0252290D01*
X0284056Y0257712D01*
X0285266Y0257712D01*
X0285266Y0252674D02*
X0284056Y0252674D01*
X0284056Y0253058D02*
X0285266Y0253058D01*
X0285266Y0253442D02*
X0284056Y0253442D01*
X0284056Y0253826D02*
X0285266Y0253826D01*
X0285266Y0254210D02*
X0284056Y0254210D01*
X0284056Y0254594D02*
X0285266Y0254594D01*
X0285266Y0254978D02*
X0284056Y0254978D01*
X0284056Y0255362D02*
X0285266Y0255362D01*
X0285266Y0255746D02*
X0284056Y0255746D01*
X0284056Y0256130D02*
X0285266Y0256130D01*
X0285266Y0256514D02*
X0284056Y0256514D01*
X0284056Y0256898D02*
X0285266Y0256898D01*
X0285266Y0257282D02*
X0284056Y0257282D01*
X0284056Y0257666D02*
X0285266Y0257666D01*
X0287825Y0257712D02*
X0287825Y0252290D01*
X0286615Y0252290D01*
X0286615Y0257712D01*
X0287825Y0257712D01*
X0287825Y0252674D02*
X0286615Y0252674D01*
X0286615Y0253058D02*
X0287825Y0253058D01*
X0287825Y0253442D02*
X0286615Y0253442D01*
X0286615Y0253826D02*
X0287825Y0253826D01*
X0287825Y0254210D02*
X0286615Y0254210D01*
X0286615Y0254594D02*
X0287825Y0254594D01*
X0287825Y0254978D02*
X0286615Y0254978D01*
X0286615Y0255362D02*
X0287825Y0255362D01*
X0287825Y0255746D02*
X0286615Y0255746D01*
X0286615Y0256130D02*
X0287825Y0256130D01*
X0287825Y0256514D02*
X0286615Y0256514D01*
X0286615Y0256898D02*
X0287825Y0256898D01*
X0287825Y0257282D02*
X0286615Y0257282D01*
X0286615Y0257666D02*
X0287825Y0257666D01*
X0290385Y0257712D02*
X0290385Y0252290D01*
X0289175Y0252290D01*
X0289175Y0257712D01*
X0290385Y0257712D01*
X0290385Y0252674D02*
X0289175Y0252674D01*
X0289175Y0253058D02*
X0290385Y0253058D01*
X0290385Y0253442D02*
X0289175Y0253442D01*
X0289175Y0253826D02*
X0290385Y0253826D01*
X0290385Y0254210D02*
X0289175Y0254210D01*
X0289175Y0254594D02*
X0290385Y0254594D01*
X0290385Y0254978D02*
X0289175Y0254978D01*
X0289175Y0255362D02*
X0290385Y0255362D01*
X0290385Y0255746D02*
X0289175Y0255746D01*
X0289175Y0256130D02*
X0290385Y0256130D01*
X0290385Y0256514D02*
X0289175Y0256514D01*
X0289175Y0256898D02*
X0290385Y0256898D01*
X0290385Y0257282D02*
X0289175Y0257282D01*
X0289175Y0257666D02*
X0290385Y0257666D01*
X0292944Y0257712D02*
X0292944Y0252290D01*
X0291734Y0252290D01*
X0291734Y0257712D01*
X0292944Y0257712D01*
X0292944Y0252674D02*
X0291734Y0252674D01*
X0291734Y0253058D02*
X0292944Y0253058D01*
X0292944Y0253442D02*
X0291734Y0253442D01*
X0291734Y0253826D02*
X0292944Y0253826D01*
X0292944Y0254210D02*
X0291734Y0254210D01*
X0291734Y0254594D02*
X0292944Y0254594D01*
X0292944Y0254978D02*
X0291734Y0254978D01*
X0291734Y0255362D02*
X0292944Y0255362D01*
X0292944Y0255746D02*
X0291734Y0255746D01*
X0291734Y0256130D02*
X0292944Y0256130D01*
X0292944Y0256514D02*
X0291734Y0256514D01*
X0291734Y0256898D02*
X0292944Y0256898D01*
X0292944Y0257282D02*
X0291734Y0257282D01*
X0291734Y0257666D02*
X0292944Y0257666D01*
X0295503Y0257712D02*
X0295503Y0252290D01*
X0294293Y0252290D01*
X0294293Y0257712D01*
X0295503Y0257712D01*
X0295503Y0252674D02*
X0294293Y0252674D01*
X0294293Y0253058D02*
X0295503Y0253058D01*
X0295503Y0253442D02*
X0294293Y0253442D01*
X0294293Y0253826D02*
X0295503Y0253826D01*
X0295503Y0254210D02*
X0294293Y0254210D01*
X0294293Y0254594D02*
X0295503Y0254594D01*
X0295503Y0254978D02*
X0294293Y0254978D01*
X0294293Y0255362D02*
X0295503Y0255362D01*
X0295503Y0255746D02*
X0294293Y0255746D01*
X0294293Y0256130D02*
X0295503Y0256130D01*
X0295503Y0256514D02*
X0294293Y0256514D01*
X0294293Y0256898D02*
X0295503Y0256898D01*
X0295503Y0257282D02*
X0294293Y0257282D01*
X0294293Y0257666D02*
X0295503Y0257666D01*
X0298062Y0257712D02*
X0298062Y0252290D01*
X0296852Y0252290D01*
X0296852Y0257712D01*
X0298062Y0257712D01*
X0298062Y0252674D02*
X0296852Y0252674D01*
X0296852Y0253058D02*
X0298062Y0253058D01*
X0298062Y0253442D02*
X0296852Y0253442D01*
X0296852Y0253826D02*
X0298062Y0253826D01*
X0298062Y0254210D02*
X0296852Y0254210D01*
X0296852Y0254594D02*
X0298062Y0254594D01*
X0298062Y0254978D02*
X0296852Y0254978D01*
X0296852Y0255362D02*
X0298062Y0255362D01*
X0298062Y0255746D02*
X0296852Y0255746D01*
X0296852Y0256130D02*
X0298062Y0256130D01*
X0298062Y0256514D02*
X0296852Y0256514D01*
X0296852Y0256898D02*
X0298062Y0256898D01*
X0298062Y0257282D02*
X0296852Y0257282D01*
X0296852Y0257666D02*
X0298062Y0257666D01*
X0300621Y0257712D02*
X0300621Y0252290D01*
X0299411Y0252290D01*
X0299411Y0257712D01*
X0300621Y0257712D01*
X0300621Y0252674D02*
X0299411Y0252674D01*
X0299411Y0253058D02*
X0300621Y0253058D01*
X0300621Y0253442D02*
X0299411Y0253442D01*
X0299411Y0253826D02*
X0300621Y0253826D01*
X0300621Y0254210D02*
X0299411Y0254210D01*
X0299411Y0254594D02*
X0300621Y0254594D01*
X0300621Y0254978D02*
X0299411Y0254978D01*
X0299411Y0255362D02*
X0300621Y0255362D01*
X0300621Y0255746D02*
X0299411Y0255746D01*
X0299411Y0256130D02*
X0300621Y0256130D01*
X0300621Y0256514D02*
X0299411Y0256514D01*
X0299411Y0256898D02*
X0300621Y0256898D01*
X0300621Y0257282D02*
X0299411Y0257282D01*
X0299411Y0257666D02*
X0300621Y0257666D01*
X0302530Y0148963D02*
X0297108Y0148963D01*
X0297108Y0150173D01*
X0302530Y0150173D01*
X0302530Y0148963D01*
X0302530Y0149347D02*
X0297108Y0149347D01*
X0297108Y0149731D02*
X0302530Y0149731D01*
X0302530Y0150115D02*
X0297108Y0150115D01*
X0297108Y0146404D02*
X0302530Y0146404D01*
X0297108Y0146404D02*
X0297108Y0147614D01*
X0302530Y0147614D01*
X0302530Y0146404D01*
X0302530Y0146788D02*
X0297108Y0146788D01*
X0297108Y0147172D02*
X0302530Y0147172D01*
X0302530Y0147556D02*
X0297108Y0147556D01*
X0297108Y0143845D02*
X0302530Y0143845D01*
X0297108Y0143845D02*
X0297108Y0145055D01*
X0302530Y0145055D01*
X0302530Y0143845D01*
X0302530Y0144229D02*
X0297108Y0144229D01*
X0297108Y0144613D02*
X0302530Y0144613D01*
X0302530Y0144997D02*
X0297108Y0144997D01*
X0297108Y0141286D02*
X0302530Y0141286D01*
X0297108Y0141286D02*
X0297108Y0142496D01*
X0302530Y0142496D01*
X0302530Y0141286D01*
X0302530Y0141670D02*
X0297108Y0141670D01*
X0297108Y0142054D02*
X0302530Y0142054D01*
X0302530Y0142438D02*
X0297108Y0142438D01*
X0297108Y0138727D02*
X0302530Y0138727D01*
X0297108Y0138727D02*
X0297108Y0139937D01*
X0302530Y0139937D01*
X0302530Y0138727D01*
X0302530Y0139111D02*
X0297108Y0139111D01*
X0297108Y0139495D02*
X0302530Y0139495D01*
X0302530Y0139879D02*
X0297108Y0139879D01*
X0297108Y0136168D02*
X0302530Y0136168D01*
X0297108Y0136168D02*
X0297108Y0137378D01*
X0302530Y0137378D01*
X0302530Y0136168D01*
X0302530Y0136552D02*
X0297108Y0136552D01*
X0297108Y0136936D02*
X0302530Y0136936D01*
X0302530Y0137320D02*
X0297108Y0137320D01*
X0297108Y0133609D02*
X0302530Y0133609D01*
X0297108Y0133609D02*
X0297108Y0134819D01*
X0302530Y0134819D01*
X0302530Y0133609D01*
X0302530Y0133993D02*
X0297108Y0133993D01*
X0297108Y0134377D02*
X0302530Y0134377D01*
X0302530Y0134761D02*
X0297108Y0134761D01*
X0297108Y0131049D02*
X0302530Y0131049D01*
X0297108Y0131049D02*
X0297108Y0132259D01*
X0302530Y0132259D01*
X0302530Y0131049D01*
X0302530Y0131433D02*
X0297108Y0131433D01*
X0297108Y0131817D02*
X0302530Y0131817D01*
X0302530Y0132201D02*
X0297108Y0132201D01*
X0297108Y0128490D02*
X0302530Y0128490D01*
X0297108Y0128490D02*
X0297108Y0129700D01*
X0302530Y0129700D01*
X0302530Y0128490D01*
X0302530Y0128874D02*
X0297108Y0128874D01*
X0297108Y0129258D02*
X0302530Y0129258D01*
X0302530Y0129642D02*
X0297108Y0129642D01*
X0297108Y0125931D02*
X0302530Y0125931D01*
X0297108Y0125931D02*
X0297108Y0127141D01*
X0302530Y0127141D01*
X0302530Y0125931D01*
X0302530Y0126315D02*
X0297108Y0126315D01*
X0297108Y0126699D02*
X0302530Y0126699D01*
X0302530Y0127083D02*
X0297108Y0127083D01*
X0297108Y0123372D02*
X0302530Y0123372D01*
X0297108Y0123372D02*
X0297108Y0124582D01*
X0302530Y0124582D01*
X0302530Y0123372D01*
X0302530Y0123756D02*
X0297108Y0123756D01*
X0297108Y0124140D02*
X0302530Y0124140D01*
X0302530Y0124524D02*
X0297108Y0124524D01*
X0297108Y0120813D02*
X0302530Y0120813D01*
X0297108Y0120813D02*
X0297108Y0122023D01*
X0302530Y0122023D01*
X0302530Y0120813D01*
X0302530Y0121197D02*
X0297108Y0121197D01*
X0297108Y0121581D02*
X0302530Y0121581D01*
X0302530Y0121965D02*
X0297108Y0121965D01*
X0297108Y0118254D02*
X0302530Y0118254D01*
X0297108Y0118254D02*
X0297108Y0119464D01*
X0302530Y0119464D01*
X0302530Y0118254D01*
X0302530Y0118638D02*
X0297108Y0118638D01*
X0297108Y0119022D02*
X0302530Y0119022D01*
X0302530Y0119406D02*
X0297108Y0119406D01*
X0297108Y0115695D02*
X0302530Y0115695D01*
X0297108Y0115695D02*
X0297108Y0116905D01*
X0302530Y0116905D01*
X0302530Y0115695D01*
X0302530Y0116079D02*
X0297108Y0116079D01*
X0297108Y0116463D02*
X0302530Y0116463D01*
X0302530Y0116847D02*
X0297108Y0116847D01*
X0279971Y0115695D02*
X0274549Y0115695D01*
X0274549Y0116905D01*
X0279971Y0116905D01*
X0279971Y0115695D01*
X0279971Y0116079D02*
X0274549Y0116079D01*
X0274549Y0116463D02*
X0279971Y0116463D01*
X0279971Y0116847D02*
X0274549Y0116847D01*
X0274549Y0118254D02*
X0279971Y0118254D01*
X0274549Y0118254D02*
X0274549Y0119464D01*
X0279971Y0119464D01*
X0279971Y0118254D01*
X0279971Y0118638D02*
X0274549Y0118638D01*
X0274549Y0119022D02*
X0279971Y0119022D01*
X0279971Y0119406D02*
X0274549Y0119406D01*
X0274549Y0120813D02*
X0279971Y0120813D01*
X0274549Y0120813D02*
X0274549Y0122023D01*
X0279971Y0122023D01*
X0279971Y0120813D01*
X0279971Y0121197D02*
X0274549Y0121197D01*
X0274549Y0121581D02*
X0279971Y0121581D01*
X0279971Y0121965D02*
X0274549Y0121965D01*
X0274549Y0123372D02*
X0279971Y0123372D01*
X0274549Y0123372D02*
X0274549Y0124582D01*
X0279971Y0124582D01*
X0279971Y0123372D01*
X0279971Y0123756D02*
X0274549Y0123756D01*
X0274549Y0124140D02*
X0279971Y0124140D01*
X0279971Y0124524D02*
X0274549Y0124524D01*
X0274549Y0125931D02*
X0279971Y0125931D01*
X0274549Y0125931D02*
X0274549Y0127141D01*
X0279971Y0127141D01*
X0279971Y0125931D01*
X0279971Y0126315D02*
X0274549Y0126315D01*
X0274549Y0126699D02*
X0279971Y0126699D01*
X0279971Y0127083D02*
X0274549Y0127083D01*
X0274549Y0128490D02*
X0279971Y0128490D01*
X0274549Y0128490D02*
X0274549Y0129700D01*
X0279971Y0129700D01*
X0279971Y0128490D01*
X0279971Y0128874D02*
X0274549Y0128874D01*
X0274549Y0129258D02*
X0279971Y0129258D01*
X0279971Y0129642D02*
X0274549Y0129642D01*
X0274549Y0131049D02*
X0279971Y0131049D01*
X0274549Y0131049D02*
X0274549Y0132259D01*
X0279971Y0132259D01*
X0279971Y0131049D01*
X0279971Y0131433D02*
X0274549Y0131433D01*
X0274549Y0131817D02*
X0279971Y0131817D01*
X0279971Y0132201D02*
X0274549Y0132201D01*
X0274549Y0133609D02*
X0279971Y0133609D01*
X0274549Y0133609D02*
X0274549Y0134819D01*
X0279971Y0134819D01*
X0279971Y0133609D01*
X0279971Y0133993D02*
X0274549Y0133993D01*
X0274549Y0134377D02*
X0279971Y0134377D01*
X0279971Y0134761D02*
X0274549Y0134761D01*
X0274549Y0136168D02*
X0279971Y0136168D01*
X0274549Y0136168D02*
X0274549Y0137378D01*
X0279971Y0137378D01*
X0279971Y0136168D01*
X0279971Y0136552D02*
X0274549Y0136552D01*
X0274549Y0136936D02*
X0279971Y0136936D01*
X0279971Y0137320D02*
X0274549Y0137320D01*
X0274549Y0138727D02*
X0279971Y0138727D01*
X0274549Y0138727D02*
X0274549Y0139937D01*
X0279971Y0139937D01*
X0279971Y0138727D01*
X0279971Y0139111D02*
X0274549Y0139111D01*
X0274549Y0139495D02*
X0279971Y0139495D01*
X0279971Y0139879D02*
X0274549Y0139879D01*
X0274549Y0141286D02*
X0279971Y0141286D01*
X0274549Y0141286D02*
X0274549Y0142496D01*
X0279971Y0142496D01*
X0279971Y0141286D01*
X0279971Y0141670D02*
X0274549Y0141670D01*
X0274549Y0142054D02*
X0279971Y0142054D01*
X0279971Y0142438D02*
X0274549Y0142438D01*
X0274549Y0143845D02*
X0279971Y0143845D01*
X0274549Y0143845D02*
X0274549Y0145055D01*
X0279971Y0145055D01*
X0279971Y0143845D01*
X0279971Y0144229D02*
X0274549Y0144229D01*
X0274549Y0144613D02*
X0279971Y0144613D01*
X0279971Y0144997D02*
X0274549Y0144997D01*
X0274549Y0146404D02*
X0279971Y0146404D01*
X0274549Y0146404D02*
X0274549Y0147614D01*
X0279971Y0147614D01*
X0279971Y0146404D01*
X0279971Y0146788D02*
X0274549Y0146788D01*
X0274549Y0147172D02*
X0279971Y0147172D01*
X0279971Y0147556D02*
X0274549Y0147556D01*
X0274549Y0148963D02*
X0279971Y0148963D01*
X0274549Y0148963D02*
X0274549Y0150173D01*
X0279971Y0150173D01*
X0279971Y0148963D01*
X0279971Y0149347D02*
X0274549Y0149347D01*
X0274549Y0149731D02*
X0279971Y0149731D01*
X0279971Y0150115D02*
X0274549Y0150115D01*
D27*
X0288539Y0144095D03*
X0288539Y0136654D03*
X0288539Y0129214D03*
X0288539Y0121773D03*
D28*
X0233539Y0169765D03*
X0233539Y0174765D03*
X0233539Y0179765D03*
X0233539Y0184765D03*
X0233539Y0189765D03*
X0233539Y0194765D03*
X0233539Y0199765D03*
X0233539Y0204765D03*
X0209524Y0204765D03*
X0209524Y0199765D03*
X0209524Y0194765D03*
X0209524Y0189765D03*
X0209524Y0184765D03*
X0209524Y0179765D03*
X0209524Y0174765D03*
X0209524Y0169765D03*
X0193382Y0169765D03*
X0193382Y0174765D03*
X0193382Y0179765D03*
X0193382Y0184765D03*
X0193382Y0189765D03*
X0193382Y0194765D03*
X0193382Y0199765D03*
X0193382Y0204765D03*
X0169366Y0204765D03*
X0169366Y0199765D03*
X0169366Y0194765D03*
X0169366Y0189765D03*
X0169366Y0184765D03*
X0169366Y0179765D03*
X0169366Y0174765D03*
X0169366Y0169765D03*
D29*
X0155390Y0156753D03*
X0155390Y0149273D03*
X0164839Y0153013D03*
D30*
X0376650Y0139627D03*
X0376650Y0112855D03*
M02*
