%
M48
M72
T01C0.01378
T02C0.03543
T03C0.04000
T04C0.07874
%
T01
X67988Y61280
X79799Y61280
X91610Y61280
X103421Y61280
X115232Y61280
X115232Y69154
X103421Y77028
X91610Y77028
X79799Y77028
X67988Y77028
X98303Y98682
X101846Y101438
X111295Y102225
X121531Y84903
X115232Y53406
X115232Y45532
X115232Y37658
X103421Y37658
X103421Y45532
X91610Y45532
X91610Y37658
X79799Y37658
X79799Y45532
X138854Y124273
X138854Y132147
X138854Y140021
X146728Y132147
X146728Y124273
X150665Y140021
X149878Y149469
X162476Y140021
X180980Y143564
X186492Y143564
X192004Y143564
X197516Y143564
X203028Y143564
X211295Y137658
X211295Y133721
X207358Y133721
X211295Y129784
X221138Y123091
X225862Y123091
X230587Y123091
X235311Y123091
X240035Y123091
X244760Y123091
X249484Y123091
X254209Y123091
X258933Y123091
X253028Y112462
X253028Y108525
X249091Y108525
X249091Y112462
X245154Y112462
X245154Y108525
X241217Y112462
X241217Y104588
X233343Y112462
X249091Y96714
X241217Y92777
X241217Y84903
X249091Y84903
X249091Y77028
X256965Y77028
X264839Y80966
X264839Y88840
X264839Y92777
X268776Y92777
X268776Y88840
X256965Y88840
X272713Y77028
X284524Y77028
X296335Y77028
X296335Y65217
X284524Y65217
X272713Y65217
X272713Y49469
X284524Y49469
X296335Y49469
X316020Y84903
X316020Y92777
X323894Y92777
X331768Y92777
X339642Y92777
X347516Y92777
X355390Y92777
X358539Y98288
X358539Y104588
X366413Y104588
X366413Y98288
X374287Y98288
X374287Y104588
X382161Y104588
X382161Y98288
X355390Y84903
X347516Y84903
X339642Y84903
X331768Y84903
X323894Y84903
X305390Y113446
X311295Y124273
X316020Y124273
X320744Y124273
X320744Y128997
X326256Y139233
X347516Y140021
X355390Y140021
X363264Y140021
X355390Y132147
X347516Y132147
X347516Y124273
X347516Y116399
X339642Y116399
X331768Y116399
X323894Y116399
X347516Y147895
X355390Y147895
X363264Y147895
X338854Y162068
X338854Y166005
X334130Y166005
X334130Y162068
X329406Y162068
X329406Y166005
X319957Y166005
X312476Y163446
X294760Y159706
X294760Y154981
X271925Y162265
X266413Y160493
X262476Y160493
X262476Y164430
X266413Y164430
X264839Y179391
X268776Y179391
X268776Y183328
X264839Y183328
X264839Y187265
X268776Y187265
X268776Y200651
X254602Y194351
X249878Y194351
X249091Y203013
X249091Y206950
X245154Y206950
X245154Y203013
X238854Y194351
X239642Y189627
X239642Y185690
X249878Y180178
X254602Y180178
X228618Y167580
X230980Y162855
X222319Y162855
X212083Y162068
X193185Y164430
X198697Y180178
X216020Y185690
X216020Y189627
X215232Y194351
X223106Y189627
X223106Y185690
X203421Y201321
X198697Y194351
X215232Y204588
X224681Y216399
X232555Y209312
X235705Y213249
X235705Y217186
X235705Y221123
X240429Y221123
X240429Y217186
X240429Y213249
X245154Y226635
X250665Y226635
X253028Y234509
X253028Y242383
X253028Y250257
X245154Y250257
X245154Y242383
X245154Y234509
X246728Y258918
X249091Y269942
X256965Y269942
X256965Y277816
X249091Y277816
X272713Y276241
X289248Y274666
X293185Y274666
X293185Y270729
X297122Y270729
X297122Y274666
X293185Y266792
X302634Y259706
X329406Y263840
X329406Y268367
X329406Y272895
X334130Y272895
X334130Y268367
X334130Y263840
X343579Y258131
X355390Y258131
X367201Y258131
X379012Y258131
X390823Y258131
X390823Y269942
X379012Y269942
X367201Y269942
X355390Y269942
X343579Y269942
X367201Y281753
X379012Y281753
X390823Y281753
X390823Y293564
X379012Y293564
X367201Y293564
X367201Y246320
X379012Y246320
X390823Y246320
X390823Y234509
X379012Y234509
X367201Y234509
X355390Y234509
X355390Y246320
X343579Y246320
X343579Y234509
X343579Y222698
X355390Y222698
X367201Y222698
X379012Y222698
X390823Y222698
X390823Y210887
X367201Y210887
X355390Y210887
X342004Y185690
X342004Y181753
X342004Y177816
X336492Y177816
X336492Y181753
X336492Y185690
X298697Y188052
X294760Y188052
X294760Y193564
X298697Y193564
X298697Y199076
X294760Y199076
X294760Y204588
X298697Y204588
X298697Y210099
X294760Y210099
X306177Y220729
X310114Y220729
X310114Y224666
X306177Y224666
X323500Y224666
X323500Y220729
X298697Y182540
X294760Y182540
X294760Y177028
X298697Y177028
X271925Y141005
X227437Y92777
X227437Y84903
X241217Y77028
X166413Y157343
X167201Y164430
X162476Y179391
X150665Y179391
X138854Y179391
X127043Y179391
X127043Y191202
X138854Y191202
X150665Y191202
X162476Y191202
X163264Y197501
X175075Y194351
X176650Y189627
X176650Y185690
X175075Y180178
X159327Y213249
X166413Y234509
X142791Y234509
X142791Y258131
X166413Y258131
X190035Y258131
X213657Y258131
X213657Y234509
X190035Y234509
X185311Y216399
X117594Y207737
X117801Y203219
X111295Y199863
X108146Y195926
X95547Y173091
X98697Y170729
X104996Y167580
X98303Y162462
X101846Y159706
X86098Y149469
X71925Y163643
X48303Y163643
X48303Y187265
X71925Y187265
X71925Y210887
X48303Y210887
X48303Y234509
X71925Y234509
X95547Y234509
X95547Y258131
X71925Y258131
X48303Y258131
X101059Y290414
X106807Y299312
X95547Y305375
X95547Y317186
X71925Y317186
X71925Y305375
X119169Y305375
X119169Y317186
X142791Y317186
X142791Y305375
X166413Y305375
X166413Y317186
X190035Y317186
X190035Y305375
X213657Y305375
X213657Y317186
X237280Y317186
X237280Y305375
X260902Y317186
X273795Y299312
X297378Y294351
X275862Y226635
X381374Y170729
X386098Y173879
X390823Y163643
X390823Y147895
X390823Y140021
X390823Y132147
X390823Y187265
X127043Y140021
T02
X105390Y55375
X77831Y55375
X266807Y55375
X294366Y55375
T03
X220681Y86359
X210681Y86359
X200681Y86359
X190681Y86359
X180681Y86359
X170681Y86359
X160681Y86359
X150681Y86359
X140681Y86359
X130681Y86359
X114681Y86359
X104681Y86359
X94681Y86359
X84681Y86359
X74681Y86359
X64681Y86359
X54681Y86359
X44681Y86359
X124681Y106359
X134681Y106359
X144681Y106359
X154681Y106359
X164681Y106359
X174681Y106359
X184681Y106359
X194681Y106359
X194681Y116359
X184681Y116359
X174681Y116359
X164681Y116359
X154681Y116359
X144681Y116359
X134681Y116359
X124681Y116359
X124681Y276359
X134681Y276359
X144681Y276359
X154681Y276359
X164681Y276359
X174681Y276359
X184681Y276359
X114681Y276359
X94681Y276359
X84681Y276359
X74681Y276359
X64681Y276359
X54681Y276359
X44681Y276359
T04
X44366Y53406
X44366Y309312
X379012Y309312
X379012Y53406
M30
