%
M48
M72
T01C0.01969
T02C0.03937
T03C0.06496
T04C0.07874
%
T01
X134917Y79799
X134917Y87673
X142791Y87673
X142791Y79799
X150665Y79799
X150665Y87673
X158539Y87673
X158539Y79799
X158539Y95547
X158539Y103421
X158539Y111295
X158539Y119169
X164445Y184130
X164445Y189051
X164445Y193972
X172319Y193972
X172319Y189051
X172319Y184130
X195941Y219563
X195941Y239248
X195941Y258933
X215626Y258933
X215626Y239248
X215626Y219563
X235311Y219563
X235311Y239248
X235311Y258933
X176256Y288461
X168382Y284524
X142791Y272713
X134917Y272713
X134917Y260902
X142791Y260902
X142791Y249091
X134917Y249091
X134917Y237280
X142791Y237280
X142791Y225469
X134917Y225469
X134917Y213657
X142791Y213657
X142791Y201846
X142791Y193972
X142791Y189051
X142791Y184130
X134917Y184130
X134917Y189051
X134917Y193972
X134917Y201846
X107358Y229406
X107358Y249091
X107358Y268776
X87673Y268776
X87673Y249091
X87673Y229406
X67988Y229406
X67988Y249091
X67988Y268776
X48303Y268776
X48303Y249091
X48303Y229406
X132949Y288461
X136886Y284524
X235311Y170350
X235311Y150665
X235311Y130980
X254996Y130980
X254996Y150665
X254996Y170350
X274681Y170350
X274681Y150665
X274681Y130980
T02
X261886Y319563
X210705Y319563
T03
X190941Y66492
X172240Y66492
T04
X93579Y48303
X62280Y205783
X142791Y341610
X172319Y341610
X201846Y341610
X251059Y363264
X282358Y205783
X251059Y48303
X93579Y363264
M30
