G75*
%MOIN*%
%OFA0B0*%
%FSLAX25Y25*%
%IPPOS*%
%LPD*%
%AMOC8*
5,1,8,0,0,1.08239X$1,22.5*
%
%ADD10C,0.09843*%
%ADD11C,0.00000*%
%ADD12C,0.07874*%
%ADD13C,0.09744*%
%ADD14R,0.05118X0.05906*%
%ADD15C,0.00004*%
%ADD16R,0.03937X0.12402*%
%ADD17R,0.03937X0.13780*%
%ADD18R,0.06299X0.13386*%
D10*
X0210705Y0319563D03*
X0261886Y0319563D03*
D11*
X0247122Y0363264D02*
X0247124Y0363389D01*
X0247130Y0363514D01*
X0247140Y0363638D01*
X0247154Y0363762D01*
X0247171Y0363886D01*
X0247193Y0364009D01*
X0247219Y0364131D01*
X0247248Y0364253D01*
X0247281Y0364373D01*
X0247319Y0364492D01*
X0247359Y0364611D01*
X0247404Y0364727D01*
X0247452Y0364842D01*
X0247504Y0364956D01*
X0247560Y0365068D01*
X0247619Y0365178D01*
X0247681Y0365286D01*
X0247747Y0365393D01*
X0247816Y0365497D01*
X0247889Y0365598D01*
X0247964Y0365698D01*
X0248043Y0365795D01*
X0248125Y0365889D01*
X0248210Y0365981D01*
X0248297Y0366070D01*
X0248388Y0366156D01*
X0248481Y0366239D01*
X0248577Y0366320D01*
X0248675Y0366397D01*
X0248775Y0366471D01*
X0248878Y0366542D01*
X0248983Y0366609D01*
X0249091Y0366674D01*
X0249200Y0366734D01*
X0249311Y0366792D01*
X0249424Y0366845D01*
X0249538Y0366895D01*
X0249654Y0366942D01*
X0249771Y0366984D01*
X0249890Y0367023D01*
X0250010Y0367059D01*
X0250131Y0367090D01*
X0250253Y0367118D01*
X0250375Y0367141D01*
X0250499Y0367161D01*
X0250623Y0367177D01*
X0250747Y0367189D01*
X0250872Y0367197D01*
X0250997Y0367201D01*
X0251121Y0367201D01*
X0251246Y0367197D01*
X0251371Y0367189D01*
X0251495Y0367177D01*
X0251619Y0367161D01*
X0251743Y0367141D01*
X0251865Y0367118D01*
X0251987Y0367090D01*
X0252108Y0367059D01*
X0252228Y0367023D01*
X0252347Y0366984D01*
X0252464Y0366942D01*
X0252580Y0366895D01*
X0252694Y0366845D01*
X0252807Y0366792D01*
X0252918Y0366734D01*
X0253028Y0366674D01*
X0253135Y0366609D01*
X0253240Y0366542D01*
X0253343Y0366471D01*
X0253443Y0366397D01*
X0253541Y0366320D01*
X0253637Y0366239D01*
X0253730Y0366156D01*
X0253821Y0366070D01*
X0253908Y0365981D01*
X0253993Y0365889D01*
X0254075Y0365795D01*
X0254154Y0365698D01*
X0254229Y0365598D01*
X0254302Y0365497D01*
X0254371Y0365393D01*
X0254437Y0365286D01*
X0254499Y0365178D01*
X0254558Y0365068D01*
X0254614Y0364956D01*
X0254666Y0364842D01*
X0254714Y0364727D01*
X0254759Y0364611D01*
X0254799Y0364492D01*
X0254837Y0364373D01*
X0254870Y0364253D01*
X0254899Y0364131D01*
X0254925Y0364009D01*
X0254947Y0363886D01*
X0254964Y0363762D01*
X0254978Y0363638D01*
X0254988Y0363514D01*
X0254994Y0363389D01*
X0254996Y0363264D01*
X0254994Y0363139D01*
X0254988Y0363014D01*
X0254978Y0362890D01*
X0254964Y0362766D01*
X0254947Y0362642D01*
X0254925Y0362519D01*
X0254899Y0362397D01*
X0254870Y0362275D01*
X0254837Y0362155D01*
X0254799Y0362036D01*
X0254759Y0361917D01*
X0254714Y0361801D01*
X0254666Y0361686D01*
X0254614Y0361572D01*
X0254558Y0361460D01*
X0254499Y0361350D01*
X0254437Y0361242D01*
X0254371Y0361135D01*
X0254302Y0361031D01*
X0254229Y0360930D01*
X0254154Y0360830D01*
X0254075Y0360733D01*
X0253993Y0360639D01*
X0253908Y0360547D01*
X0253821Y0360458D01*
X0253730Y0360372D01*
X0253637Y0360289D01*
X0253541Y0360208D01*
X0253443Y0360131D01*
X0253343Y0360057D01*
X0253240Y0359986D01*
X0253135Y0359919D01*
X0253027Y0359854D01*
X0252918Y0359794D01*
X0252807Y0359736D01*
X0252694Y0359683D01*
X0252580Y0359633D01*
X0252464Y0359586D01*
X0252347Y0359544D01*
X0252228Y0359505D01*
X0252108Y0359469D01*
X0251987Y0359438D01*
X0251865Y0359410D01*
X0251743Y0359387D01*
X0251619Y0359367D01*
X0251495Y0359351D01*
X0251371Y0359339D01*
X0251246Y0359331D01*
X0251121Y0359327D01*
X0250997Y0359327D01*
X0250872Y0359331D01*
X0250747Y0359339D01*
X0250623Y0359351D01*
X0250499Y0359367D01*
X0250375Y0359387D01*
X0250253Y0359410D01*
X0250131Y0359438D01*
X0250010Y0359469D01*
X0249890Y0359505D01*
X0249771Y0359544D01*
X0249654Y0359586D01*
X0249538Y0359633D01*
X0249424Y0359683D01*
X0249311Y0359736D01*
X0249200Y0359794D01*
X0249090Y0359854D01*
X0248983Y0359919D01*
X0248878Y0359986D01*
X0248775Y0360057D01*
X0248675Y0360131D01*
X0248577Y0360208D01*
X0248481Y0360289D01*
X0248388Y0360372D01*
X0248297Y0360458D01*
X0248210Y0360547D01*
X0248125Y0360639D01*
X0248043Y0360733D01*
X0247964Y0360830D01*
X0247889Y0360930D01*
X0247816Y0361031D01*
X0247747Y0361135D01*
X0247681Y0361242D01*
X0247619Y0361350D01*
X0247560Y0361460D01*
X0247504Y0361572D01*
X0247452Y0361686D01*
X0247404Y0361801D01*
X0247359Y0361917D01*
X0247319Y0362036D01*
X0247281Y0362155D01*
X0247248Y0362275D01*
X0247219Y0362397D01*
X0247193Y0362519D01*
X0247171Y0362642D01*
X0247154Y0362766D01*
X0247140Y0362890D01*
X0247130Y0363014D01*
X0247124Y0363139D01*
X0247122Y0363264D01*
X0197909Y0341610D02*
X0197911Y0341735D01*
X0197917Y0341860D01*
X0197927Y0341984D01*
X0197941Y0342108D01*
X0197958Y0342232D01*
X0197980Y0342355D01*
X0198006Y0342477D01*
X0198035Y0342599D01*
X0198068Y0342719D01*
X0198106Y0342838D01*
X0198146Y0342957D01*
X0198191Y0343073D01*
X0198239Y0343188D01*
X0198291Y0343302D01*
X0198347Y0343414D01*
X0198406Y0343524D01*
X0198468Y0343632D01*
X0198534Y0343739D01*
X0198603Y0343843D01*
X0198676Y0343944D01*
X0198751Y0344044D01*
X0198830Y0344141D01*
X0198912Y0344235D01*
X0198997Y0344327D01*
X0199084Y0344416D01*
X0199175Y0344502D01*
X0199268Y0344585D01*
X0199364Y0344666D01*
X0199462Y0344743D01*
X0199562Y0344817D01*
X0199665Y0344888D01*
X0199770Y0344955D01*
X0199878Y0345020D01*
X0199987Y0345080D01*
X0200098Y0345138D01*
X0200211Y0345191D01*
X0200325Y0345241D01*
X0200441Y0345288D01*
X0200558Y0345330D01*
X0200677Y0345369D01*
X0200797Y0345405D01*
X0200918Y0345436D01*
X0201040Y0345464D01*
X0201162Y0345487D01*
X0201286Y0345507D01*
X0201410Y0345523D01*
X0201534Y0345535D01*
X0201659Y0345543D01*
X0201784Y0345547D01*
X0201908Y0345547D01*
X0202033Y0345543D01*
X0202158Y0345535D01*
X0202282Y0345523D01*
X0202406Y0345507D01*
X0202530Y0345487D01*
X0202652Y0345464D01*
X0202774Y0345436D01*
X0202895Y0345405D01*
X0203015Y0345369D01*
X0203134Y0345330D01*
X0203251Y0345288D01*
X0203367Y0345241D01*
X0203481Y0345191D01*
X0203594Y0345138D01*
X0203705Y0345080D01*
X0203815Y0345020D01*
X0203922Y0344955D01*
X0204027Y0344888D01*
X0204130Y0344817D01*
X0204230Y0344743D01*
X0204328Y0344666D01*
X0204424Y0344585D01*
X0204517Y0344502D01*
X0204608Y0344416D01*
X0204695Y0344327D01*
X0204780Y0344235D01*
X0204862Y0344141D01*
X0204941Y0344044D01*
X0205016Y0343944D01*
X0205089Y0343843D01*
X0205158Y0343739D01*
X0205224Y0343632D01*
X0205286Y0343524D01*
X0205345Y0343414D01*
X0205401Y0343302D01*
X0205453Y0343188D01*
X0205501Y0343073D01*
X0205546Y0342957D01*
X0205586Y0342838D01*
X0205624Y0342719D01*
X0205657Y0342599D01*
X0205686Y0342477D01*
X0205712Y0342355D01*
X0205734Y0342232D01*
X0205751Y0342108D01*
X0205765Y0341984D01*
X0205775Y0341860D01*
X0205781Y0341735D01*
X0205783Y0341610D01*
X0205781Y0341485D01*
X0205775Y0341360D01*
X0205765Y0341236D01*
X0205751Y0341112D01*
X0205734Y0340988D01*
X0205712Y0340865D01*
X0205686Y0340743D01*
X0205657Y0340621D01*
X0205624Y0340501D01*
X0205586Y0340382D01*
X0205546Y0340263D01*
X0205501Y0340147D01*
X0205453Y0340032D01*
X0205401Y0339918D01*
X0205345Y0339806D01*
X0205286Y0339696D01*
X0205224Y0339588D01*
X0205158Y0339481D01*
X0205089Y0339377D01*
X0205016Y0339276D01*
X0204941Y0339176D01*
X0204862Y0339079D01*
X0204780Y0338985D01*
X0204695Y0338893D01*
X0204608Y0338804D01*
X0204517Y0338718D01*
X0204424Y0338635D01*
X0204328Y0338554D01*
X0204230Y0338477D01*
X0204130Y0338403D01*
X0204027Y0338332D01*
X0203922Y0338265D01*
X0203814Y0338200D01*
X0203705Y0338140D01*
X0203594Y0338082D01*
X0203481Y0338029D01*
X0203367Y0337979D01*
X0203251Y0337932D01*
X0203134Y0337890D01*
X0203015Y0337851D01*
X0202895Y0337815D01*
X0202774Y0337784D01*
X0202652Y0337756D01*
X0202530Y0337733D01*
X0202406Y0337713D01*
X0202282Y0337697D01*
X0202158Y0337685D01*
X0202033Y0337677D01*
X0201908Y0337673D01*
X0201784Y0337673D01*
X0201659Y0337677D01*
X0201534Y0337685D01*
X0201410Y0337697D01*
X0201286Y0337713D01*
X0201162Y0337733D01*
X0201040Y0337756D01*
X0200918Y0337784D01*
X0200797Y0337815D01*
X0200677Y0337851D01*
X0200558Y0337890D01*
X0200441Y0337932D01*
X0200325Y0337979D01*
X0200211Y0338029D01*
X0200098Y0338082D01*
X0199987Y0338140D01*
X0199877Y0338200D01*
X0199770Y0338265D01*
X0199665Y0338332D01*
X0199562Y0338403D01*
X0199462Y0338477D01*
X0199364Y0338554D01*
X0199268Y0338635D01*
X0199175Y0338718D01*
X0199084Y0338804D01*
X0198997Y0338893D01*
X0198912Y0338985D01*
X0198830Y0339079D01*
X0198751Y0339176D01*
X0198676Y0339276D01*
X0198603Y0339377D01*
X0198534Y0339481D01*
X0198468Y0339588D01*
X0198406Y0339696D01*
X0198347Y0339806D01*
X0198291Y0339918D01*
X0198239Y0340032D01*
X0198191Y0340147D01*
X0198146Y0340263D01*
X0198106Y0340382D01*
X0198068Y0340501D01*
X0198035Y0340621D01*
X0198006Y0340743D01*
X0197980Y0340865D01*
X0197958Y0340988D01*
X0197941Y0341112D01*
X0197927Y0341236D01*
X0197917Y0341360D01*
X0197911Y0341485D01*
X0197909Y0341610D01*
X0168382Y0341610D02*
X0168384Y0341735D01*
X0168390Y0341860D01*
X0168400Y0341984D01*
X0168414Y0342108D01*
X0168431Y0342232D01*
X0168453Y0342355D01*
X0168479Y0342477D01*
X0168508Y0342599D01*
X0168541Y0342719D01*
X0168579Y0342838D01*
X0168619Y0342957D01*
X0168664Y0343073D01*
X0168712Y0343188D01*
X0168764Y0343302D01*
X0168820Y0343414D01*
X0168879Y0343524D01*
X0168941Y0343632D01*
X0169007Y0343739D01*
X0169076Y0343843D01*
X0169149Y0343944D01*
X0169224Y0344044D01*
X0169303Y0344141D01*
X0169385Y0344235D01*
X0169470Y0344327D01*
X0169557Y0344416D01*
X0169648Y0344502D01*
X0169741Y0344585D01*
X0169837Y0344666D01*
X0169935Y0344743D01*
X0170035Y0344817D01*
X0170138Y0344888D01*
X0170243Y0344955D01*
X0170351Y0345020D01*
X0170460Y0345080D01*
X0170571Y0345138D01*
X0170684Y0345191D01*
X0170798Y0345241D01*
X0170914Y0345288D01*
X0171031Y0345330D01*
X0171150Y0345369D01*
X0171270Y0345405D01*
X0171391Y0345436D01*
X0171513Y0345464D01*
X0171635Y0345487D01*
X0171759Y0345507D01*
X0171883Y0345523D01*
X0172007Y0345535D01*
X0172132Y0345543D01*
X0172257Y0345547D01*
X0172381Y0345547D01*
X0172506Y0345543D01*
X0172631Y0345535D01*
X0172755Y0345523D01*
X0172879Y0345507D01*
X0173003Y0345487D01*
X0173125Y0345464D01*
X0173247Y0345436D01*
X0173368Y0345405D01*
X0173488Y0345369D01*
X0173607Y0345330D01*
X0173724Y0345288D01*
X0173840Y0345241D01*
X0173954Y0345191D01*
X0174067Y0345138D01*
X0174178Y0345080D01*
X0174288Y0345020D01*
X0174395Y0344955D01*
X0174500Y0344888D01*
X0174603Y0344817D01*
X0174703Y0344743D01*
X0174801Y0344666D01*
X0174897Y0344585D01*
X0174990Y0344502D01*
X0175081Y0344416D01*
X0175168Y0344327D01*
X0175253Y0344235D01*
X0175335Y0344141D01*
X0175414Y0344044D01*
X0175489Y0343944D01*
X0175562Y0343843D01*
X0175631Y0343739D01*
X0175697Y0343632D01*
X0175759Y0343524D01*
X0175818Y0343414D01*
X0175874Y0343302D01*
X0175926Y0343188D01*
X0175974Y0343073D01*
X0176019Y0342957D01*
X0176059Y0342838D01*
X0176097Y0342719D01*
X0176130Y0342599D01*
X0176159Y0342477D01*
X0176185Y0342355D01*
X0176207Y0342232D01*
X0176224Y0342108D01*
X0176238Y0341984D01*
X0176248Y0341860D01*
X0176254Y0341735D01*
X0176256Y0341610D01*
X0176254Y0341485D01*
X0176248Y0341360D01*
X0176238Y0341236D01*
X0176224Y0341112D01*
X0176207Y0340988D01*
X0176185Y0340865D01*
X0176159Y0340743D01*
X0176130Y0340621D01*
X0176097Y0340501D01*
X0176059Y0340382D01*
X0176019Y0340263D01*
X0175974Y0340147D01*
X0175926Y0340032D01*
X0175874Y0339918D01*
X0175818Y0339806D01*
X0175759Y0339696D01*
X0175697Y0339588D01*
X0175631Y0339481D01*
X0175562Y0339377D01*
X0175489Y0339276D01*
X0175414Y0339176D01*
X0175335Y0339079D01*
X0175253Y0338985D01*
X0175168Y0338893D01*
X0175081Y0338804D01*
X0174990Y0338718D01*
X0174897Y0338635D01*
X0174801Y0338554D01*
X0174703Y0338477D01*
X0174603Y0338403D01*
X0174500Y0338332D01*
X0174395Y0338265D01*
X0174287Y0338200D01*
X0174178Y0338140D01*
X0174067Y0338082D01*
X0173954Y0338029D01*
X0173840Y0337979D01*
X0173724Y0337932D01*
X0173607Y0337890D01*
X0173488Y0337851D01*
X0173368Y0337815D01*
X0173247Y0337784D01*
X0173125Y0337756D01*
X0173003Y0337733D01*
X0172879Y0337713D01*
X0172755Y0337697D01*
X0172631Y0337685D01*
X0172506Y0337677D01*
X0172381Y0337673D01*
X0172257Y0337673D01*
X0172132Y0337677D01*
X0172007Y0337685D01*
X0171883Y0337697D01*
X0171759Y0337713D01*
X0171635Y0337733D01*
X0171513Y0337756D01*
X0171391Y0337784D01*
X0171270Y0337815D01*
X0171150Y0337851D01*
X0171031Y0337890D01*
X0170914Y0337932D01*
X0170798Y0337979D01*
X0170684Y0338029D01*
X0170571Y0338082D01*
X0170460Y0338140D01*
X0170350Y0338200D01*
X0170243Y0338265D01*
X0170138Y0338332D01*
X0170035Y0338403D01*
X0169935Y0338477D01*
X0169837Y0338554D01*
X0169741Y0338635D01*
X0169648Y0338718D01*
X0169557Y0338804D01*
X0169470Y0338893D01*
X0169385Y0338985D01*
X0169303Y0339079D01*
X0169224Y0339176D01*
X0169149Y0339276D01*
X0169076Y0339377D01*
X0169007Y0339481D01*
X0168941Y0339588D01*
X0168879Y0339696D01*
X0168820Y0339806D01*
X0168764Y0339918D01*
X0168712Y0340032D01*
X0168664Y0340147D01*
X0168619Y0340263D01*
X0168579Y0340382D01*
X0168541Y0340501D01*
X0168508Y0340621D01*
X0168479Y0340743D01*
X0168453Y0340865D01*
X0168431Y0340988D01*
X0168414Y0341112D01*
X0168400Y0341236D01*
X0168390Y0341360D01*
X0168384Y0341485D01*
X0168382Y0341610D01*
X0138854Y0341610D02*
X0138856Y0341735D01*
X0138862Y0341860D01*
X0138872Y0341984D01*
X0138886Y0342108D01*
X0138903Y0342232D01*
X0138925Y0342355D01*
X0138951Y0342477D01*
X0138980Y0342599D01*
X0139013Y0342719D01*
X0139051Y0342838D01*
X0139091Y0342957D01*
X0139136Y0343073D01*
X0139184Y0343188D01*
X0139236Y0343302D01*
X0139292Y0343414D01*
X0139351Y0343524D01*
X0139413Y0343632D01*
X0139479Y0343739D01*
X0139548Y0343843D01*
X0139621Y0343944D01*
X0139696Y0344044D01*
X0139775Y0344141D01*
X0139857Y0344235D01*
X0139942Y0344327D01*
X0140029Y0344416D01*
X0140120Y0344502D01*
X0140213Y0344585D01*
X0140309Y0344666D01*
X0140407Y0344743D01*
X0140507Y0344817D01*
X0140610Y0344888D01*
X0140715Y0344955D01*
X0140823Y0345020D01*
X0140932Y0345080D01*
X0141043Y0345138D01*
X0141156Y0345191D01*
X0141270Y0345241D01*
X0141386Y0345288D01*
X0141503Y0345330D01*
X0141622Y0345369D01*
X0141742Y0345405D01*
X0141863Y0345436D01*
X0141985Y0345464D01*
X0142107Y0345487D01*
X0142231Y0345507D01*
X0142355Y0345523D01*
X0142479Y0345535D01*
X0142604Y0345543D01*
X0142729Y0345547D01*
X0142853Y0345547D01*
X0142978Y0345543D01*
X0143103Y0345535D01*
X0143227Y0345523D01*
X0143351Y0345507D01*
X0143475Y0345487D01*
X0143597Y0345464D01*
X0143719Y0345436D01*
X0143840Y0345405D01*
X0143960Y0345369D01*
X0144079Y0345330D01*
X0144196Y0345288D01*
X0144312Y0345241D01*
X0144426Y0345191D01*
X0144539Y0345138D01*
X0144650Y0345080D01*
X0144760Y0345020D01*
X0144867Y0344955D01*
X0144972Y0344888D01*
X0145075Y0344817D01*
X0145175Y0344743D01*
X0145273Y0344666D01*
X0145369Y0344585D01*
X0145462Y0344502D01*
X0145553Y0344416D01*
X0145640Y0344327D01*
X0145725Y0344235D01*
X0145807Y0344141D01*
X0145886Y0344044D01*
X0145961Y0343944D01*
X0146034Y0343843D01*
X0146103Y0343739D01*
X0146169Y0343632D01*
X0146231Y0343524D01*
X0146290Y0343414D01*
X0146346Y0343302D01*
X0146398Y0343188D01*
X0146446Y0343073D01*
X0146491Y0342957D01*
X0146531Y0342838D01*
X0146569Y0342719D01*
X0146602Y0342599D01*
X0146631Y0342477D01*
X0146657Y0342355D01*
X0146679Y0342232D01*
X0146696Y0342108D01*
X0146710Y0341984D01*
X0146720Y0341860D01*
X0146726Y0341735D01*
X0146728Y0341610D01*
X0146726Y0341485D01*
X0146720Y0341360D01*
X0146710Y0341236D01*
X0146696Y0341112D01*
X0146679Y0340988D01*
X0146657Y0340865D01*
X0146631Y0340743D01*
X0146602Y0340621D01*
X0146569Y0340501D01*
X0146531Y0340382D01*
X0146491Y0340263D01*
X0146446Y0340147D01*
X0146398Y0340032D01*
X0146346Y0339918D01*
X0146290Y0339806D01*
X0146231Y0339696D01*
X0146169Y0339588D01*
X0146103Y0339481D01*
X0146034Y0339377D01*
X0145961Y0339276D01*
X0145886Y0339176D01*
X0145807Y0339079D01*
X0145725Y0338985D01*
X0145640Y0338893D01*
X0145553Y0338804D01*
X0145462Y0338718D01*
X0145369Y0338635D01*
X0145273Y0338554D01*
X0145175Y0338477D01*
X0145075Y0338403D01*
X0144972Y0338332D01*
X0144867Y0338265D01*
X0144759Y0338200D01*
X0144650Y0338140D01*
X0144539Y0338082D01*
X0144426Y0338029D01*
X0144312Y0337979D01*
X0144196Y0337932D01*
X0144079Y0337890D01*
X0143960Y0337851D01*
X0143840Y0337815D01*
X0143719Y0337784D01*
X0143597Y0337756D01*
X0143475Y0337733D01*
X0143351Y0337713D01*
X0143227Y0337697D01*
X0143103Y0337685D01*
X0142978Y0337677D01*
X0142853Y0337673D01*
X0142729Y0337673D01*
X0142604Y0337677D01*
X0142479Y0337685D01*
X0142355Y0337697D01*
X0142231Y0337713D01*
X0142107Y0337733D01*
X0141985Y0337756D01*
X0141863Y0337784D01*
X0141742Y0337815D01*
X0141622Y0337851D01*
X0141503Y0337890D01*
X0141386Y0337932D01*
X0141270Y0337979D01*
X0141156Y0338029D01*
X0141043Y0338082D01*
X0140932Y0338140D01*
X0140822Y0338200D01*
X0140715Y0338265D01*
X0140610Y0338332D01*
X0140507Y0338403D01*
X0140407Y0338477D01*
X0140309Y0338554D01*
X0140213Y0338635D01*
X0140120Y0338718D01*
X0140029Y0338804D01*
X0139942Y0338893D01*
X0139857Y0338985D01*
X0139775Y0339079D01*
X0139696Y0339176D01*
X0139621Y0339276D01*
X0139548Y0339377D01*
X0139479Y0339481D01*
X0139413Y0339588D01*
X0139351Y0339696D01*
X0139292Y0339806D01*
X0139236Y0339918D01*
X0139184Y0340032D01*
X0139136Y0340147D01*
X0139091Y0340263D01*
X0139051Y0340382D01*
X0139013Y0340501D01*
X0138980Y0340621D01*
X0138951Y0340743D01*
X0138925Y0340865D01*
X0138903Y0340988D01*
X0138886Y0341112D01*
X0138872Y0341236D01*
X0138862Y0341360D01*
X0138856Y0341485D01*
X0138854Y0341610D01*
X0089642Y0363264D02*
X0089644Y0363389D01*
X0089650Y0363514D01*
X0089660Y0363638D01*
X0089674Y0363762D01*
X0089691Y0363886D01*
X0089713Y0364009D01*
X0089739Y0364131D01*
X0089768Y0364253D01*
X0089801Y0364373D01*
X0089839Y0364492D01*
X0089879Y0364611D01*
X0089924Y0364727D01*
X0089972Y0364842D01*
X0090024Y0364956D01*
X0090080Y0365068D01*
X0090139Y0365178D01*
X0090201Y0365286D01*
X0090267Y0365393D01*
X0090336Y0365497D01*
X0090409Y0365598D01*
X0090484Y0365698D01*
X0090563Y0365795D01*
X0090645Y0365889D01*
X0090730Y0365981D01*
X0090817Y0366070D01*
X0090908Y0366156D01*
X0091001Y0366239D01*
X0091097Y0366320D01*
X0091195Y0366397D01*
X0091295Y0366471D01*
X0091398Y0366542D01*
X0091503Y0366609D01*
X0091611Y0366674D01*
X0091720Y0366734D01*
X0091831Y0366792D01*
X0091944Y0366845D01*
X0092058Y0366895D01*
X0092174Y0366942D01*
X0092291Y0366984D01*
X0092410Y0367023D01*
X0092530Y0367059D01*
X0092651Y0367090D01*
X0092773Y0367118D01*
X0092895Y0367141D01*
X0093019Y0367161D01*
X0093143Y0367177D01*
X0093267Y0367189D01*
X0093392Y0367197D01*
X0093517Y0367201D01*
X0093641Y0367201D01*
X0093766Y0367197D01*
X0093891Y0367189D01*
X0094015Y0367177D01*
X0094139Y0367161D01*
X0094263Y0367141D01*
X0094385Y0367118D01*
X0094507Y0367090D01*
X0094628Y0367059D01*
X0094748Y0367023D01*
X0094867Y0366984D01*
X0094984Y0366942D01*
X0095100Y0366895D01*
X0095214Y0366845D01*
X0095327Y0366792D01*
X0095438Y0366734D01*
X0095548Y0366674D01*
X0095655Y0366609D01*
X0095760Y0366542D01*
X0095863Y0366471D01*
X0095963Y0366397D01*
X0096061Y0366320D01*
X0096157Y0366239D01*
X0096250Y0366156D01*
X0096341Y0366070D01*
X0096428Y0365981D01*
X0096513Y0365889D01*
X0096595Y0365795D01*
X0096674Y0365698D01*
X0096749Y0365598D01*
X0096822Y0365497D01*
X0096891Y0365393D01*
X0096957Y0365286D01*
X0097019Y0365178D01*
X0097078Y0365068D01*
X0097134Y0364956D01*
X0097186Y0364842D01*
X0097234Y0364727D01*
X0097279Y0364611D01*
X0097319Y0364492D01*
X0097357Y0364373D01*
X0097390Y0364253D01*
X0097419Y0364131D01*
X0097445Y0364009D01*
X0097467Y0363886D01*
X0097484Y0363762D01*
X0097498Y0363638D01*
X0097508Y0363514D01*
X0097514Y0363389D01*
X0097516Y0363264D01*
X0097514Y0363139D01*
X0097508Y0363014D01*
X0097498Y0362890D01*
X0097484Y0362766D01*
X0097467Y0362642D01*
X0097445Y0362519D01*
X0097419Y0362397D01*
X0097390Y0362275D01*
X0097357Y0362155D01*
X0097319Y0362036D01*
X0097279Y0361917D01*
X0097234Y0361801D01*
X0097186Y0361686D01*
X0097134Y0361572D01*
X0097078Y0361460D01*
X0097019Y0361350D01*
X0096957Y0361242D01*
X0096891Y0361135D01*
X0096822Y0361031D01*
X0096749Y0360930D01*
X0096674Y0360830D01*
X0096595Y0360733D01*
X0096513Y0360639D01*
X0096428Y0360547D01*
X0096341Y0360458D01*
X0096250Y0360372D01*
X0096157Y0360289D01*
X0096061Y0360208D01*
X0095963Y0360131D01*
X0095863Y0360057D01*
X0095760Y0359986D01*
X0095655Y0359919D01*
X0095547Y0359854D01*
X0095438Y0359794D01*
X0095327Y0359736D01*
X0095214Y0359683D01*
X0095100Y0359633D01*
X0094984Y0359586D01*
X0094867Y0359544D01*
X0094748Y0359505D01*
X0094628Y0359469D01*
X0094507Y0359438D01*
X0094385Y0359410D01*
X0094263Y0359387D01*
X0094139Y0359367D01*
X0094015Y0359351D01*
X0093891Y0359339D01*
X0093766Y0359331D01*
X0093641Y0359327D01*
X0093517Y0359327D01*
X0093392Y0359331D01*
X0093267Y0359339D01*
X0093143Y0359351D01*
X0093019Y0359367D01*
X0092895Y0359387D01*
X0092773Y0359410D01*
X0092651Y0359438D01*
X0092530Y0359469D01*
X0092410Y0359505D01*
X0092291Y0359544D01*
X0092174Y0359586D01*
X0092058Y0359633D01*
X0091944Y0359683D01*
X0091831Y0359736D01*
X0091720Y0359794D01*
X0091610Y0359854D01*
X0091503Y0359919D01*
X0091398Y0359986D01*
X0091295Y0360057D01*
X0091195Y0360131D01*
X0091097Y0360208D01*
X0091001Y0360289D01*
X0090908Y0360372D01*
X0090817Y0360458D01*
X0090730Y0360547D01*
X0090645Y0360639D01*
X0090563Y0360733D01*
X0090484Y0360830D01*
X0090409Y0360930D01*
X0090336Y0361031D01*
X0090267Y0361135D01*
X0090201Y0361242D01*
X0090139Y0361350D01*
X0090080Y0361460D01*
X0090024Y0361572D01*
X0089972Y0361686D01*
X0089924Y0361801D01*
X0089879Y0361917D01*
X0089839Y0362036D01*
X0089801Y0362155D01*
X0089768Y0362275D01*
X0089739Y0362397D01*
X0089713Y0362519D01*
X0089691Y0362642D01*
X0089674Y0362766D01*
X0089660Y0362890D01*
X0089650Y0363014D01*
X0089644Y0363139D01*
X0089642Y0363264D01*
X0058343Y0205783D02*
X0058345Y0205908D01*
X0058351Y0206033D01*
X0058361Y0206157D01*
X0058375Y0206281D01*
X0058392Y0206405D01*
X0058414Y0206528D01*
X0058440Y0206650D01*
X0058469Y0206772D01*
X0058502Y0206892D01*
X0058540Y0207011D01*
X0058580Y0207130D01*
X0058625Y0207246D01*
X0058673Y0207361D01*
X0058725Y0207475D01*
X0058781Y0207587D01*
X0058840Y0207697D01*
X0058902Y0207805D01*
X0058968Y0207912D01*
X0059037Y0208016D01*
X0059110Y0208117D01*
X0059185Y0208217D01*
X0059264Y0208314D01*
X0059346Y0208408D01*
X0059431Y0208500D01*
X0059518Y0208589D01*
X0059609Y0208675D01*
X0059702Y0208758D01*
X0059798Y0208839D01*
X0059896Y0208916D01*
X0059996Y0208990D01*
X0060099Y0209061D01*
X0060204Y0209128D01*
X0060312Y0209193D01*
X0060421Y0209253D01*
X0060532Y0209311D01*
X0060645Y0209364D01*
X0060759Y0209414D01*
X0060875Y0209461D01*
X0060992Y0209503D01*
X0061111Y0209542D01*
X0061231Y0209578D01*
X0061352Y0209609D01*
X0061474Y0209637D01*
X0061596Y0209660D01*
X0061720Y0209680D01*
X0061844Y0209696D01*
X0061968Y0209708D01*
X0062093Y0209716D01*
X0062218Y0209720D01*
X0062342Y0209720D01*
X0062467Y0209716D01*
X0062592Y0209708D01*
X0062716Y0209696D01*
X0062840Y0209680D01*
X0062964Y0209660D01*
X0063086Y0209637D01*
X0063208Y0209609D01*
X0063329Y0209578D01*
X0063449Y0209542D01*
X0063568Y0209503D01*
X0063685Y0209461D01*
X0063801Y0209414D01*
X0063915Y0209364D01*
X0064028Y0209311D01*
X0064139Y0209253D01*
X0064249Y0209193D01*
X0064356Y0209128D01*
X0064461Y0209061D01*
X0064564Y0208990D01*
X0064664Y0208916D01*
X0064762Y0208839D01*
X0064858Y0208758D01*
X0064951Y0208675D01*
X0065042Y0208589D01*
X0065129Y0208500D01*
X0065214Y0208408D01*
X0065296Y0208314D01*
X0065375Y0208217D01*
X0065450Y0208117D01*
X0065523Y0208016D01*
X0065592Y0207912D01*
X0065658Y0207805D01*
X0065720Y0207697D01*
X0065779Y0207587D01*
X0065835Y0207475D01*
X0065887Y0207361D01*
X0065935Y0207246D01*
X0065980Y0207130D01*
X0066020Y0207011D01*
X0066058Y0206892D01*
X0066091Y0206772D01*
X0066120Y0206650D01*
X0066146Y0206528D01*
X0066168Y0206405D01*
X0066185Y0206281D01*
X0066199Y0206157D01*
X0066209Y0206033D01*
X0066215Y0205908D01*
X0066217Y0205783D01*
X0066215Y0205658D01*
X0066209Y0205533D01*
X0066199Y0205409D01*
X0066185Y0205285D01*
X0066168Y0205161D01*
X0066146Y0205038D01*
X0066120Y0204916D01*
X0066091Y0204794D01*
X0066058Y0204674D01*
X0066020Y0204555D01*
X0065980Y0204436D01*
X0065935Y0204320D01*
X0065887Y0204205D01*
X0065835Y0204091D01*
X0065779Y0203979D01*
X0065720Y0203869D01*
X0065658Y0203761D01*
X0065592Y0203654D01*
X0065523Y0203550D01*
X0065450Y0203449D01*
X0065375Y0203349D01*
X0065296Y0203252D01*
X0065214Y0203158D01*
X0065129Y0203066D01*
X0065042Y0202977D01*
X0064951Y0202891D01*
X0064858Y0202808D01*
X0064762Y0202727D01*
X0064664Y0202650D01*
X0064564Y0202576D01*
X0064461Y0202505D01*
X0064356Y0202438D01*
X0064248Y0202373D01*
X0064139Y0202313D01*
X0064028Y0202255D01*
X0063915Y0202202D01*
X0063801Y0202152D01*
X0063685Y0202105D01*
X0063568Y0202063D01*
X0063449Y0202024D01*
X0063329Y0201988D01*
X0063208Y0201957D01*
X0063086Y0201929D01*
X0062964Y0201906D01*
X0062840Y0201886D01*
X0062716Y0201870D01*
X0062592Y0201858D01*
X0062467Y0201850D01*
X0062342Y0201846D01*
X0062218Y0201846D01*
X0062093Y0201850D01*
X0061968Y0201858D01*
X0061844Y0201870D01*
X0061720Y0201886D01*
X0061596Y0201906D01*
X0061474Y0201929D01*
X0061352Y0201957D01*
X0061231Y0201988D01*
X0061111Y0202024D01*
X0060992Y0202063D01*
X0060875Y0202105D01*
X0060759Y0202152D01*
X0060645Y0202202D01*
X0060532Y0202255D01*
X0060421Y0202313D01*
X0060311Y0202373D01*
X0060204Y0202438D01*
X0060099Y0202505D01*
X0059996Y0202576D01*
X0059896Y0202650D01*
X0059798Y0202727D01*
X0059702Y0202808D01*
X0059609Y0202891D01*
X0059518Y0202977D01*
X0059431Y0203066D01*
X0059346Y0203158D01*
X0059264Y0203252D01*
X0059185Y0203349D01*
X0059110Y0203449D01*
X0059037Y0203550D01*
X0058968Y0203654D01*
X0058902Y0203761D01*
X0058840Y0203869D01*
X0058781Y0203979D01*
X0058725Y0204091D01*
X0058673Y0204205D01*
X0058625Y0204320D01*
X0058580Y0204436D01*
X0058540Y0204555D01*
X0058502Y0204674D01*
X0058469Y0204794D01*
X0058440Y0204916D01*
X0058414Y0205038D01*
X0058392Y0205161D01*
X0058375Y0205285D01*
X0058361Y0205409D01*
X0058351Y0205533D01*
X0058345Y0205658D01*
X0058343Y0205783D01*
X0089642Y0048303D02*
X0089644Y0048428D01*
X0089650Y0048553D01*
X0089660Y0048677D01*
X0089674Y0048801D01*
X0089691Y0048925D01*
X0089713Y0049048D01*
X0089739Y0049170D01*
X0089768Y0049292D01*
X0089801Y0049412D01*
X0089839Y0049531D01*
X0089879Y0049650D01*
X0089924Y0049766D01*
X0089972Y0049881D01*
X0090024Y0049995D01*
X0090080Y0050107D01*
X0090139Y0050217D01*
X0090201Y0050325D01*
X0090267Y0050432D01*
X0090336Y0050536D01*
X0090409Y0050637D01*
X0090484Y0050737D01*
X0090563Y0050834D01*
X0090645Y0050928D01*
X0090730Y0051020D01*
X0090817Y0051109D01*
X0090908Y0051195D01*
X0091001Y0051278D01*
X0091097Y0051359D01*
X0091195Y0051436D01*
X0091295Y0051510D01*
X0091398Y0051581D01*
X0091503Y0051648D01*
X0091611Y0051713D01*
X0091720Y0051773D01*
X0091831Y0051831D01*
X0091944Y0051884D01*
X0092058Y0051934D01*
X0092174Y0051981D01*
X0092291Y0052023D01*
X0092410Y0052062D01*
X0092530Y0052098D01*
X0092651Y0052129D01*
X0092773Y0052157D01*
X0092895Y0052180D01*
X0093019Y0052200D01*
X0093143Y0052216D01*
X0093267Y0052228D01*
X0093392Y0052236D01*
X0093517Y0052240D01*
X0093641Y0052240D01*
X0093766Y0052236D01*
X0093891Y0052228D01*
X0094015Y0052216D01*
X0094139Y0052200D01*
X0094263Y0052180D01*
X0094385Y0052157D01*
X0094507Y0052129D01*
X0094628Y0052098D01*
X0094748Y0052062D01*
X0094867Y0052023D01*
X0094984Y0051981D01*
X0095100Y0051934D01*
X0095214Y0051884D01*
X0095327Y0051831D01*
X0095438Y0051773D01*
X0095548Y0051713D01*
X0095655Y0051648D01*
X0095760Y0051581D01*
X0095863Y0051510D01*
X0095963Y0051436D01*
X0096061Y0051359D01*
X0096157Y0051278D01*
X0096250Y0051195D01*
X0096341Y0051109D01*
X0096428Y0051020D01*
X0096513Y0050928D01*
X0096595Y0050834D01*
X0096674Y0050737D01*
X0096749Y0050637D01*
X0096822Y0050536D01*
X0096891Y0050432D01*
X0096957Y0050325D01*
X0097019Y0050217D01*
X0097078Y0050107D01*
X0097134Y0049995D01*
X0097186Y0049881D01*
X0097234Y0049766D01*
X0097279Y0049650D01*
X0097319Y0049531D01*
X0097357Y0049412D01*
X0097390Y0049292D01*
X0097419Y0049170D01*
X0097445Y0049048D01*
X0097467Y0048925D01*
X0097484Y0048801D01*
X0097498Y0048677D01*
X0097508Y0048553D01*
X0097514Y0048428D01*
X0097516Y0048303D01*
X0097514Y0048178D01*
X0097508Y0048053D01*
X0097498Y0047929D01*
X0097484Y0047805D01*
X0097467Y0047681D01*
X0097445Y0047558D01*
X0097419Y0047436D01*
X0097390Y0047314D01*
X0097357Y0047194D01*
X0097319Y0047075D01*
X0097279Y0046956D01*
X0097234Y0046840D01*
X0097186Y0046725D01*
X0097134Y0046611D01*
X0097078Y0046499D01*
X0097019Y0046389D01*
X0096957Y0046281D01*
X0096891Y0046174D01*
X0096822Y0046070D01*
X0096749Y0045969D01*
X0096674Y0045869D01*
X0096595Y0045772D01*
X0096513Y0045678D01*
X0096428Y0045586D01*
X0096341Y0045497D01*
X0096250Y0045411D01*
X0096157Y0045328D01*
X0096061Y0045247D01*
X0095963Y0045170D01*
X0095863Y0045096D01*
X0095760Y0045025D01*
X0095655Y0044958D01*
X0095547Y0044893D01*
X0095438Y0044833D01*
X0095327Y0044775D01*
X0095214Y0044722D01*
X0095100Y0044672D01*
X0094984Y0044625D01*
X0094867Y0044583D01*
X0094748Y0044544D01*
X0094628Y0044508D01*
X0094507Y0044477D01*
X0094385Y0044449D01*
X0094263Y0044426D01*
X0094139Y0044406D01*
X0094015Y0044390D01*
X0093891Y0044378D01*
X0093766Y0044370D01*
X0093641Y0044366D01*
X0093517Y0044366D01*
X0093392Y0044370D01*
X0093267Y0044378D01*
X0093143Y0044390D01*
X0093019Y0044406D01*
X0092895Y0044426D01*
X0092773Y0044449D01*
X0092651Y0044477D01*
X0092530Y0044508D01*
X0092410Y0044544D01*
X0092291Y0044583D01*
X0092174Y0044625D01*
X0092058Y0044672D01*
X0091944Y0044722D01*
X0091831Y0044775D01*
X0091720Y0044833D01*
X0091610Y0044893D01*
X0091503Y0044958D01*
X0091398Y0045025D01*
X0091295Y0045096D01*
X0091195Y0045170D01*
X0091097Y0045247D01*
X0091001Y0045328D01*
X0090908Y0045411D01*
X0090817Y0045497D01*
X0090730Y0045586D01*
X0090645Y0045678D01*
X0090563Y0045772D01*
X0090484Y0045869D01*
X0090409Y0045969D01*
X0090336Y0046070D01*
X0090267Y0046174D01*
X0090201Y0046281D01*
X0090139Y0046389D01*
X0090080Y0046499D01*
X0090024Y0046611D01*
X0089972Y0046725D01*
X0089924Y0046840D01*
X0089879Y0046956D01*
X0089839Y0047075D01*
X0089801Y0047194D01*
X0089768Y0047314D01*
X0089739Y0047436D01*
X0089713Y0047558D01*
X0089691Y0047681D01*
X0089674Y0047805D01*
X0089660Y0047929D01*
X0089650Y0048053D01*
X0089644Y0048178D01*
X0089642Y0048303D01*
X0247122Y0048303D02*
X0247124Y0048428D01*
X0247130Y0048553D01*
X0247140Y0048677D01*
X0247154Y0048801D01*
X0247171Y0048925D01*
X0247193Y0049048D01*
X0247219Y0049170D01*
X0247248Y0049292D01*
X0247281Y0049412D01*
X0247319Y0049531D01*
X0247359Y0049650D01*
X0247404Y0049766D01*
X0247452Y0049881D01*
X0247504Y0049995D01*
X0247560Y0050107D01*
X0247619Y0050217D01*
X0247681Y0050325D01*
X0247747Y0050432D01*
X0247816Y0050536D01*
X0247889Y0050637D01*
X0247964Y0050737D01*
X0248043Y0050834D01*
X0248125Y0050928D01*
X0248210Y0051020D01*
X0248297Y0051109D01*
X0248388Y0051195D01*
X0248481Y0051278D01*
X0248577Y0051359D01*
X0248675Y0051436D01*
X0248775Y0051510D01*
X0248878Y0051581D01*
X0248983Y0051648D01*
X0249091Y0051713D01*
X0249200Y0051773D01*
X0249311Y0051831D01*
X0249424Y0051884D01*
X0249538Y0051934D01*
X0249654Y0051981D01*
X0249771Y0052023D01*
X0249890Y0052062D01*
X0250010Y0052098D01*
X0250131Y0052129D01*
X0250253Y0052157D01*
X0250375Y0052180D01*
X0250499Y0052200D01*
X0250623Y0052216D01*
X0250747Y0052228D01*
X0250872Y0052236D01*
X0250997Y0052240D01*
X0251121Y0052240D01*
X0251246Y0052236D01*
X0251371Y0052228D01*
X0251495Y0052216D01*
X0251619Y0052200D01*
X0251743Y0052180D01*
X0251865Y0052157D01*
X0251987Y0052129D01*
X0252108Y0052098D01*
X0252228Y0052062D01*
X0252347Y0052023D01*
X0252464Y0051981D01*
X0252580Y0051934D01*
X0252694Y0051884D01*
X0252807Y0051831D01*
X0252918Y0051773D01*
X0253028Y0051713D01*
X0253135Y0051648D01*
X0253240Y0051581D01*
X0253343Y0051510D01*
X0253443Y0051436D01*
X0253541Y0051359D01*
X0253637Y0051278D01*
X0253730Y0051195D01*
X0253821Y0051109D01*
X0253908Y0051020D01*
X0253993Y0050928D01*
X0254075Y0050834D01*
X0254154Y0050737D01*
X0254229Y0050637D01*
X0254302Y0050536D01*
X0254371Y0050432D01*
X0254437Y0050325D01*
X0254499Y0050217D01*
X0254558Y0050107D01*
X0254614Y0049995D01*
X0254666Y0049881D01*
X0254714Y0049766D01*
X0254759Y0049650D01*
X0254799Y0049531D01*
X0254837Y0049412D01*
X0254870Y0049292D01*
X0254899Y0049170D01*
X0254925Y0049048D01*
X0254947Y0048925D01*
X0254964Y0048801D01*
X0254978Y0048677D01*
X0254988Y0048553D01*
X0254994Y0048428D01*
X0254996Y0048303D01*
X0254994Y0048178D01*
X0254988Y0048053D01*
X0254978Y0047929D01*
X0254964Y0047805D01*
X0254947Y0047681D01*
X0254925Y0047558D01*
X0254899Y0047436D01*
X0254870Y0047314D01*
X0254837Y0047194D01*
X0254799Y0047075D01*
X0254759Y0046956D01*
X0254714Y0046840D01*
X0254666Y0046725D01*
X0254614Y0046611D01*
X0254558Y0046499D01*
X0254499Y0046389D01*
X0254437Y0046281D01*
X0254371Y0046174D01*
X0254302Y0046070D01*
X0254229Y0045969D01*
X0254154Y0045869D01*
X0254075Y0045772D01*
X0253993Y0045678D01*
X0253908Y0045586D01*
X0253821Y0045497D01*
X0253730Y0045411D01*
X0253637Y0045328D01*
X0253541Y0045247D01*
X0253443Y0045170D01*
X0253343Y0045096D01*
X0253240Y0045025D01*
X0253135Y0044958D01*
X0253027Y0044893D01*
X0252918Y0044833D01*
X0252807Y0044775D01*
X0252694Y0044722D01*
X0252580Y0044672D01*
X0252464Y0044625D01*
X0252347Y0044583D01*
X0252228Y0044544D01*
X0252108Y0044508D01*
X0251987Y0044477D01*
X0251865Y0044449D01*
X0251743Y0044426D01*
X0251619Y0044406D01*
X0251495Y0044390D01*
X0251371Y0044378D01*
X0251246Y0044370D01*
X0251121Y0044366D01*
X0250997Y0044366D01*
X0250872Y0044370D01*
X0250747Y0044378D01*
X0250623Y0044390D01*
X0250499Y0044406D01*
X0250375Y0044426D01*
X0250253Y0044449D01*
X0250131Y0044477D01*
X0250010Y0044508D01*
X0249890Y0044544D01*
X0249771Y0044583D01*
X0249654Y0044625D01*
X0249538Y0044672D01*
X0249424Y0044722D01*
X0249311Y0044775D01*
X0249200Y0044833D01*
X0249090Y0044893D01*
X0248983Y0044958D01*
X0248878Y0045025D01*
X0248775Y0045096D01*
X0248675Y0045170D01*
X0248577Y0045247D01*
X0248481Y0045328D01*
X0248388Y0045411D01*
X0248297Y0045497D01*
X0248210Y0045586D01*
X0248125Y0045678D01*
X0248043Y0045772D01*
X0247964Y0045869D01*
X0247889Y0045969D01*
X0247816Y0046070D01*
X0247747Y0046174D01*
X0247681Y0046281D01*
X0247619Y0046389D01*
X0247560Y0046499D01*
X0247504Y0046611D01*
X0247452Y0046725D01*
X0247404Y0046840D01*
X0247359Y0046956D01*
X0247319Y0047075D01*
X0247281Y0047194D01*
X0247248Y0047314D01*
X0247219Y0047436D01*
X0247193Y0047558D01*
X0247171Y0047681D01*
X0247154Y0047805D01*
X0247140Y0047929D01*
X0247130Y0048053D01*
X0247124Y0048178D01*
X0247122Y0048303D01*
X0278421Y0205783D02*
X0278423Y0205908D01*
X0278429Y0206033D01*
X0278439Y0206157D01*
X0278453Y0206281D01*
X0278470Y0206405D01*
X0278492Y0206528D01*
X0278518Y0206650D01*
X0278547Y0206772D01*
X0278580Y0206892D01*
X0278618Y0207011D01*
X0278658Y0207130D01*
X0278703Y0207246D01*
X0278751Y0207361D01*
X0278803Y0207475D01*
X0278859Y0207587D01*
X0278918Y0207697D01*
X0278980Y0207805D01*
X0279046Y0207912D01*
X0279115Y0208016D01*
X0279188Y0208117D01*
X0279263Y0208217D01*
X0279342Y0208314D01*
X0279424Y0208408D01*
X0279509Y0208500D01*
X0279596Y0208589D01*
X0279687Y0208675D01*
X0279780Y0208758D01*
X0279876Y0208839D01*
X0279974Y0208916D01*
X0280074Y0208990D01*
X0280177Y0209061D01*
X0280282Y0209128D01*
X0280390Y0209193D01*
X0280499Y0209253D01*
X0280610Y0209311D01*
X0280723Y0209364D01*
X0280837Y0209414D01*
X0280953Y0209461D01*
X0281070Y0209503D01*
X0281189Y0209542D01*
X0281309Y0209578D01*
X0281430Y0209609D01*
X0281552Y0209637D01*
X0281674Y0209660D01*
X0281798Y0209680D01*
X0281922Y0209696D01*
X0282046Y0209708D01*
X0282171Y0209716D01*
X0282296Y0209720D01*
X0282420Y0209720D01*
X0282545Y0209716D01*
X0282670Y0209708D01*
X0282794Y0209696D01*
X0282918Y0209680D01*
X0283042Y0209660D01*
X0283164Y0209637D01*
X0283286Y0209609D01*
X0283407Y0209578D01*
X0283527Y0209542D01*
X0283646Y0209503D01*
X0283763Y0209461D01*
X0283879Y0209414D01*
X0283993Y0209364D01*
X0284106Y0209311D01*
X0284217Y0209253D01*
X0284327Y0209193D01*
X0284434Y0209128D01*
X0284539Y0209061D01*
X0284642Y0208990D01*
X0284742Y0208916D01*
X0284840Y0208839D01*
X0284936Y0208758D01*
X0285029Y0208675D01*
X0285120Y0208589D01*
X0285207Y0208500D01*
X0285292Y0208408D01*
X0285374Y0208314D01*
X0285453Y0208217D01*
X0285528Y0208117D01*
X0285601Y0208016D01*
X0285670Y0207912D01*
X0285736Y0207805D01*
X0285798Y0207697D01*
X0285857Y0207587D01*
X0285913Y0207475D01*
X0285965Y0207361D01*
X0286013Y0207246D01*
X0286058Y0207130D01*
X0286098Y0207011D01*
X0286136Y0206892D01*
X0286169Y0206772D01*
X0286198Y0206650D01*
X0286224Y0206528D01*
X0286246Y0206405D01*
X0286263Y0206281D01*
X0286277Y0206157D01*
X0286287Y0206033D01*
X0286293Y0205908D01*
X0286295Y0205783D01*
X0286293Y0205658D01*
X0286287Y0205533D01*
X0286277Y0205409D01*
X0286263Y0205285D01*
X0286246Y0205161D01*
X0286224Y0205038D01*
X0286198Y0204916D01*
X0286169Y0204794D01*
X0286136Y0204674D01*
X0286098Y0204555D01*
X0286058Y0204436D01*
X0286013Y0204320D01*
X0285965Y0204205D01*
X0285913Y0204091D01*
X0285857Y0203979D01*
X0285798Y0203869D01*
X0285736Y0203761D01*
X0285670Y0203654D01*
X0285601Y0203550D01*
X0285528Y0203449D01*
X0285453Y0203349D01*
X0285374Y0203252D01*
X0285292Y0203158D01*
X0285207Y0203066D01*
X0285120Y0202977D01*
X0285029Y0202891D01*
X0284936Y0202808D01*
X0284840Y0202727D01*
X0284742Y0202650D01*
X0284642Y0202576D01*
X0284539Y0202505D01*
X0284434Y0202438D01*
X0284326Y0202373D01*
X0284217Y0202313D01*
X0284106Y0202255D01*
X0283993Y0202202D01*
X0283879Y0202152D01*
X0283763Y0202105D01*
X0283646Y0202063D01*
X0283527Y0202024D01*
X0283407Y0201988D01*
X0283286Y0201957D01*
X0283164Y0201929D01*
X0283042Y0201906D01*
X0282918Y0201886D01*
X0282794Y0201870D01*
X0282670Y0201858D01*
X0282545Y0201850D01*
X0282420Y0201846D01*
X0282296Y0201846D01*
X0282171Y0201850D01*
X0282046Y0201858D01*
X0281922Y0201870D01*
X0281798Y0201886D01*
X0281674Y0201906D01*
X0281552Y0201929D01*
X0281430Y0201957D01*
X0281309Y0201988D01*
X0281189Y0202024D01*
X0281070Y0202063D01*
X0280953Y0202105D01*
X0280837Y0202152D01*
X0280723Y0202202D01*
X0280610Y0202255D01*
X0280499Y0202313D01*
X0280389Y0202373D01*
X0280282Y0202438D01*
X0280177Y0202505D01*
X0280074Y0202576D01*
X0279974Y0202650D01*
X0279876Y0202727D01*
X0279780Y0202808D01*
X0279687Y0202891D01*
X0279596Y0202977D01*
X0279509Y0203066D01*
X0279424Y0203158D01*
X0279342Y0203252D01*
X0279263Y0203349D01*
X0279188Y0203449D01*
X0279115Y0203550D01*
X0279046Y0203654D01*
X0278980Y0203761D01*
X0278918Y0203869D01*
X0278859Y0203979D01*
X0278803Y0204091D01*
X0278751Y0204205D01*
X0278703Y0204320D01*
X0278658Y0204436D01*
X0278618Y0204555D01*
X0278580Y0204674D01*
X0278547Y0204794D01*
X0278518Y0204916D01*
X0278492Y0205038D01*
X0278470Y0205161D01*
X0278453Y0205285D01*
X0278439Y0205409D01*
X0278429Y0205533D01*
X0278423Y0205658D01*
X0278421Y0205783D01*
D12*
X0282358Y0205783D03*
X0201846Y0341610D03*
X0172319Y0341610D03*
X0142791Y0341610D03*
X0093579Y0363264D03*
X0062280Y0205783D03*
X0093579Y0048303D03*
X0251059Y0048303D03*
X0251059Y0363264D03*
D13*
X0190941Y0066492D03*
X0172240Y0066492D03*
D14*
X0172122Y0095547D03*
X0164642Y0095547D03*
X0166610Y0254996D03*
X0174091Y0254996D03*
X0154406Y0254996D03*
X0146925Y0254996D03*
D15*
X0028618Y0339642D02*
X0028618Y0071925D01*
X0067988Y0071925D01*
X0067988Y0032555D01*
X0276650Y0032555D01*
X0276650Y0071925D01*
X0316020Y0071925D01*
X0316020Y0339642D01*
X0276650Y0339642D01*
X0276650Y0379012D01*
X0067988Y0379012D01*
X0067988Y0339642D01*
X0028618Y0339642D01*
D16*
X0128854Y0121236D03*
X0138854Y0121236D03*
X0148854Y0121236D03*
X0148854Y0101354D03*
X0138854Y0101354D03*
X0128854Y0101354D03*
D17*
X0156571Y0272516D03*
X0164445Y0272516D03*
X0172319Y0272516D03*
X0180193Y0272516D03*
X0188067Y0272516D03*
D18*
X0197319Y0294366D03*
X0147319Y0294366D03*
M02*
